<svg width="41" height="24" viewBox="0 0 41 24" fill="none" xmlns="http://www.w3.org/2000/svg">
<path d="M11.13 12C13.8869 12 16.13 9.75688 16.13 7C16.13 4.24312 13.8869 2 11.13 2C8.37313 2 6.13 4.24312 6.13 7C6.13 9.75688 8.37313 12 11.13 12ZM33.13 4H19.13C18.5775 4 18.13 4.4475 18.13 5V14H4.13V1C4.13 0.4475 3.6825 0 3.13 0H1.13C0.577505 0 0.130005 0.4475 0.130005 1V23C0.130005 23.5525 0.577505 24 1.13 24H3.13C3.6825 24 4.13 23.5525 4.13 23V20H36.13V23C36.13 23.5525 36.5775 24 37.13 24H39.13C39.6825 24 40.13 23.5525 40.13 23V11C40.13 7.13375 36.9963 4 33.13 4Z" fill="white"/>
</svg>
