<svg width="35" height="34" viewBox="0 0 35 34" fill="none" xmlns="http://www.w3.org/2000/svg">
<mask id="mask0_1_251" style="mask-type:luminance" maskUnits="userSpaceOnUse" x="0" y="0" width="35" height="34">
<path d="M0.759644 0.100098H34.3596V33.7001H0.759644V0.100098Z" fill="white"/>
</mask>
<g mask="url(#mask0_1_251)">
<path d="M33.4284 0.100098H1.88673C1.73673 0.100098 1.59298 0.129265 1.45548 0.187597C1.31798 0.243848 1.19506 0.325098 1.09089 0.431348C0.984644 0.535514 0.903393 0.658431 0.847143 0.795931C0.788811 0.933431 0.759644 1.07718 0.759644 1.22718V3.47926C0.759644 3.62927 0.788811 3.77301 0.847143 3.91051C0.903393 4.04801 0.984644 4.17093 1.09089 4.2751C1.19506 4.38135 1.31798 4.4626 1.45548 4.52093C1.59298 4.57718 1.73673 4.60635 1.88673 4.60635H2.23256L1.35339 7.24385C1.32423 7.32927 1.31589 7.41885 1.33048 7.50843C1.34298 7.59801 1.37631 7.67927 1.43048 7.75218C1.48256 7.8251 1.54923 7.88343 1.63048 7.9251C1.70964 7.96468 1.79506 7.98551 1.88673 7.98551H2.23256L1.35339 10.623C1.32423 10.7105 1.31589 10.798 1.33048 10.8876C1.34298 10.9772 1.37631 11.0584 1.43048 11.1313C1.48256 11.2043 1.54923 11.2626 1.63048 11.3043C1.70964 11.3438 1.79506 11.3647 1.88673 11.3647H2.23256L1.35339 14.0022C1.32423 14.0897 1.31589 14.1772 1.33048 14.2668C1.34298 14.3563 1.37631 14.4376 1.43048 14.5105C1.48256 14.5834 1.54923 14.6418 1.63048 14.6834C1.70964 14.723 1.79506 14.7438 1.88673 14.7438H2.23256L1.35339 17.3834C1.32423 17.4688 1.31589 17.5563 1.33048 17.6459C1.34298 17.7355 1.37631 17.8168 1.43048 17.8897C1.48256 17.9626 1.54923 18.0209 1.63048 18.0626C1.70964 18.1043 1.79506 18.123 1.88673 18.123H2.23256L1.35339 20.7626C1.32423 20.848 1.31589 20.9355 1.33048 21.0251C1.34298 21.1147 1.37631 21.1959 1.43048 21.2688C1.48256 21.3438 1.54923 21.4001 1.63048 21.4418C1.70964 21.4834 1.79506 21.5043 1.88673 21.5043H3.57631V33.3313C3.57631 33.4063 3.59089 33.4772 3.62006 33.5459C3.64714 33.6147 3.68881 33.6772 3.74089 33.7293C3.79298 33.7813 3.85548 33.823 3.92423 33.8522C3.99298 33.8793 4.06381 33.8938 4.13881 33.8938H31.1742C31.2492 33.8938 31.3201 33.8793 31.3909 33.8522C31.4596 33.823 31.5201 33.7813 31.5721 33.7293C31.6263 33.6772 31.6659 33.6147 31.6951 33.5459C31.7242 33.4772 31.7367 33.4063 31.7367 33.3313V21.5043H33.4284C33.518 21.5043 33.6034 21.4834 33.6846 21.4418C33.7638 21.4001 33.8326 21.3438 33.8846 21.2688C33.9367 21.1959 33.9701 21.1147 33.9846 21.0251C33.9971 20.9355 33.9909 20.848 33.9617 20.7626L33.0826 18.123H33.4284C33.518 18.123 33.6034 18.1043 33.6846 18.0626C33.7638 18.0209 33.8326 17.9626 33.8846 17.8897C33.9367 17.8168 33.9701 17.7355 33.9846 17.6459C33.9971 17.5563 33.9909 17.4688 33.9617 17.3834L33.0826 14.7438H33.4284C33.518 14.7438 33.6034 14.723 33.6846 14.6834C33.7638 14.6418 33.8326 14.5834 33.8846 14.5105C33.9367 14.4376 33.9701 14.3563 33.9846 14.2668C33.9971 14.1772 33.9909 14.0897 33.9617 14.0022L33.0826 11.3647H33.4284C33.518 11.3647 33.6034 11.3438 33.6846 11.3043C33.7638 11.2626 33.8326 11.2043 33.8846 11.1313C33.9367 11.0584 33.9701 10.9772 33.9846 10.8876C33.9971 10.798 33.9909 10.7105 33.9617 10.623L33.0826 7.98551H33.4284C33.518 7.98551 33.6034 7.96468 33.6846 7.9251C33.7638 7.88343 33.8326 7.8251 33.8846 7.75218C33.9367 7.67927 33.9701 7.59801 33.9846 7.50843C33.9971 7.41885 33.9909 7.32927 33.9617 7.24385L33.0826 4.60635H33.4284C33.5763 4.60635 33.7201 4.57718 33.8576 4.52093C33.9971 4.4626 34.118 4.38135 34.2242 4.2751C34.3284 4.17093 34.4096 4.04801 34.468 3.91051C34.5242 3.77301 34.5534 3.62927 34.5534 3.47926V1.22718C34.5534 1.07718 34.5242 0.933431 34.468 0.795931C34.4096 0.658431 34.3284 0.535514 34.2242 0.431348C34.118 0.325098 33.9971 0.243848 33.8576 0.187597C33.7201 0.129265 33.5763 0.100098 33.4284 0.100098ZM5.26589 4.60635V6.85843H2.66798L3.41798 4.60635H5.26589ZM6.39298 20.3772V18.123H28.9221V20.3772H6.39298ZM8.08256 29.3876V21.5043H23.8534V24.9855C23.7284 25.0313 23.6096 25.0876 23.4992 25.1605C23.3888 25.2313 23.2867 25.3147 23.1951 25.4105C23.1034 25.5063 23.0242 25.6105 22.9576 25.7251C22.8909 25.8376 22.8388 25.9584 22.7992 26.0855C22.7617 26.2105 22.7388 26.3397 22.7305 26.473C22.7201 26.6043 22.7284 26.7355 22.7513 26.8647C22.7721 26.9959 22.8096 27.1209 22.8617 27.2418C22.9138 27.3647 22.9784 27.4772 23.0576 27.5834C23.1367 27.6897 23.2263 27.7855 23.3263 27.8709C23.4284 27.9564 23.5367 28.0293 23.6555 28.0876C23.7721 28.148 23.8971 28.1918 24.0242 28.223C24.1534 28.2543 24.2846 28.2688 24.4159 28.2688C24.5471 28.2688 24.6784 28.2543 24.8076 28.223C24.9346 28.1918 25.0576 28.148 25.1763 28.0876C25.2951 28.0293 25.4034 27.9564 25.5055 27.8709C25.6055 27.7855 25.6951 27.6897 25.7742 27.5834C25.8534 27.4772 25.918 27.3647 25.9701 27.2418C26.0221 27.1209 26.0596 26.9959 26.0805 26.8647C26.1034 26.7355 26.1096 26.6043 26.1013 26.473C26.093 26.3397 26.0701 26.2105 26.0305 26.0855C25.993 25.9584 25.9409 25.8376 25.8721 25.7251C25.8055 25.6105 25.7263 25.5063 25.6367 25.4105C25.5451 25.3147 25.443 25.2313 25.3326 25.1605C25.2221 25.0876 25.1034 25.0313 24.9784 24.9855V21.5043H27.2326V29.3876H8.08256ZM24.9784 26.573C24.9784 26.648 24.9638 26.7188 24.9367 26.7876C24.9076 26.8563 24.8659 26.9168 24.8138 26.9709C24.7617 27.023 24.7013 27.0647 24.6305 27.0918C24.5617 27.1209 24.4909 27.1355 24.4159 27.1355C24.3409 27.1355 24.2701 27.1209 24.1992 27.0918C24.1305 27.0647 24.0701 27.023 24.018 26.9709C23.9638 26.9168 23.9242 26.8563 23.8951 26.7876C23.8659 26.7188 23.8534 26.648 23.8534 26.573C23.8534 26.498 23.8659 26.4251 23.8951 26.3563C23.9242 26.2876 23.9638 26.2272 24.018 26.1751C24.0701 26.1209 24.1305 26.0813 24.1992 26.0522C24.2701 26.023 24.3409 26.0084 24.4159 26.0084C24.4909 26.0084 24.5617 26.023 24.6305 26.0522C24.6992 26.0813 24.7617 26.1209 24.8138 26.1751C24.8659 26.2272 24.9076 26.2876 24.9367 26.3563C24.9638 26.4251 24.9784 26.498 24.9784 26.573ZM6.39298 16.998V14.7438H28.9221V16.998H6.39298ZM6.39298 13.6188V11.3647H28.9221V13.6188H6.39298ZM6.39298 10.2397V7.98551H28.9221V10.2397H6.39298ZM6.39298 6.85843V4.60635H28.9221V6.85843H6.39298ZM5.26589 7.98551V10.2397H2.66798L3.41798 7.98551H5.26589ZM5.26589 11.3647V13.6188H2.66798L3.41798 11.3647H5.26589ZM5.26589 14.7438V16.998H2.66798L3.41798 14.7438H5.26589ZM3.41798 18.123H5.26589V20.3772H2.66798L3.41798 18.123ZM6.95548 21.5043V29.3876H4.70339V21.5043H6.95548ZM4.70339 32.7688V30.5147H30.6117V32.7688H4.70339ZM30.6117 29.3876H28.3576V21.5043H30.6117V29.3876ZM32.6451 20.3772H30.0471V18.123H31.8951L32.6451 20.3772ZM32.6451 16.998H30.0471V14.7438H31.8951L32.6451 16.998ZM32.6451 13.6188H30.0471V11.3647H31.8951L32.6451 13.6188ZM32.6451 10.2397H30.0471V7.98551H31.8951L32.6451 10.2397ZM32.6451 6.85843H30.0471V4.60635H31.8951L32.6451 6.85843ZM1.88673 3.47926V1.22718H33.4284V3.47926H1.88673Z" fill="white"/>
</g>
</svg>
