<svg width="23" height="36" viewBox="0 0 23 36" fill="none" xmlns="http://www.w3.org/2000/svg">
<mask id="mask0_1_278" style="mask-type:luminance" maskUnits="userSpaceOnUse" x="0" y="0" width="23" height="36">
<path d="M0.287903 0.454102H22.6879V35.6541H0.287903V0.454102Z" fill="white"/>
</mask>
<g mask="url(#mask0_1_278)">
<path d="M21.1525 2.052H19.8296V0.856169C19.8296 0.745752 19.7921 0.652002 19.7129 0.574919C19.6358 0.495752 19.5421 0.458252 19.4317 0.458252C19.3212 0.458252 19.2275 0.495752 19.1504 0.574919C19.0712 0.652002 19.0337 0.745752 19.0337 0.856169V2.052H16.6421V0.856169C16.6421 0.745752 16.6025 0.652002 16.5254 0.574919C16.4462 0.495752 16.3525 0.458252 16.2421 0.458252C16.1317 0.458252 16.0379 0.495752 15.9608 0.574919C15.8837 0.652002 15.8442 0.745752 15.8442 0.856169V2.052H13.4525V0.856169C13.4525 0.745752 13.4129 0.652002 13.3358 0.574919C13.2567 0.495752 13.1629 0.458252 13.0525 0.458252C12.9442 0.458252 12.8483 0.495752 12.7712 0.574919C12.6942 0.652002 12.6546 0.745752 12.6546 0.856169V2.052H10.2629V0.856169C10.2629 0.745752 10.2233 0.652002 10.1462 0.574919C10.0671 0.495752 9.97332 0.458252 9.86499 0.458252C9.75457 0.458252 9.66082 0.495752 9.58165 0.574919C9.50457 0.652002 9.46499 0.745752 9.46499 0.856169V2.052H7.07332V0.856169C7.07332 0.745752 7.03374 0.652002 6.95665 0.574919C6.87957 0.495752 6.78582 0.458252 6.6754 0.458252C6.56499 0.458252 6.47124 0.495752 6.39207 0.574919C6.31499 0.652002 6.2754 0.745752 6.2754 0.856169V2.052H3.88374V0.856169C3.88374 0.745752 3.84624 0.652002 3.76707 0.574919C3.68999 0.495752 3.59624 0.458252 3.48582 0.458252C3.3754 0.458252 3.28165 0.495752 3.20457 0.574919C3.1254 0.652002 3.08582 0.745752 3.08582 0.856169V2.052H1.74624C1.55249 2.052 1.36707 2.0895 1.1879 2.1645C1.00874 2.23742 0.852486 2.34367 0.714986 2.47909C0.577486 2.61659 0.47332 2.77492 0.39832 2.95408C0.325403 3.13117 0.287903 3.31867 0.287903 3.51034V32.4853C0.287903 32.6791 0.325403 32.8645 0.39832 33.0437C0.47332 33.2228 0.577486 33.3812 0.714986 33.5166C0.852486 33.6541 1.00874 33.7603 1.1879 33.8333C1.36707 33.9083 1.55249 33.9458 1.74624 33.9458H3.08582V35.1416C3.0879 35.252 3.1254 35.3458 3.20457 35.4228C3.28165 35.4999 3.3754 35.5395 3.48582 35.5395C3.59624 35.5395 3.68999 35.4999 3.76707 35.4228C3.84415 35.3458 3.88374 35.252 3.88374 35.1416V33.9458H6.2754V35.1416C6.2754 35.252 6.31499 35.3458 6.39207 35.4228C6.47124 35.4999 6.56499 35.5395 6.6754 35.5395C6.78582 35.5395 6.87957 35.4999 6.95665 35.4228C7.03374 35.3458 7.07332 35.252 7.07332 35.1416V33.9458H9.46499V35.1416C9.46499 35.252 9.50457 35.3458 9.58165 35.4228C9.66082 35.4999 9.75457 35.5395 9.86499 35.5395C9.97332 35.5395 10.0671 35.4999 10.1462 35.4228C10.2233 35.3458 10.2629 35.252 10.2629 35.1416V33.9458H12.6546V35.1416C12.6546 35.252 12.6942 35.3458 12.7712 35.4228C12.8483 35.4999 12.9442 35.5395 13.0525 35.5395C13.1629 35.5395 13.2567 35.4999 13.3358 35.4228C13.4129 35.3458 13.4525 35.252 13.4525 35.1416V33.9458H15.8442V35.1416C15.8442 35.252 15.8837 35.3458 15.9608 35.4228C16.0379 35.4999 16.1317 35.5395 16.2421 35.5395C16.3525 35.5395 16.4462 35.4999 16.5254 35.4228C16.6025 35.3458 16.6421 35.252 16.6421 35.1416V33.9458H19.0337V35.1416C19.0337 35.252 19.0712 35.3458 19.1504 35.4228C19.2275 35.4999 19.3212 35.5395 19.4317 35.5395C19.5421 35.5395 19.6358 35.4999 19.7129 35.4228C19.7921 35.3458 19.8296 35.252 19.8296 35.1416V33.9458H21.1525C21.3462 33.9458 21.5337 33.9083 21.7108 33.8333C21.89 33.7603 22.0483 33.6541 22.1837 33.5166C22.3212 33.3812 22.4275 33.2228 22.5004 33.0437C22.5754 32.8645 22.6129 32.6791 22.6129 32.4853V14.4103C22.6129 14.2999 22.5733 14.2062 22.4962 14.1291C22.4171 14.052 22.3233 14.0124 22.2129 14.0124C22.1046 14.0124 22.0087 14.052 21.9317 14.1291C21.8546 14.2062 21.815 14.2999 21.815 14.4103V29.9583H16.2733C16.3858 29.5874 16.565 29.2478 16.8067 28.9458C17.0483 28.6416 17.3379 28.3916 17.6754 28.1978C18.4942 27.5666 19.4233 26.8416 19.4233 25.4145C19.4233 23.9853 18.4942 23.2603 17.6754 22.6228C16.9025 22.0228 16.2337 21.5062 16.2337 20.4645C16.2337 19.4208 16.9004 18.9062 17.6754 18.3103C18.4942 17.6728 19.4233 16.9562 19.4233 15.5208C19.4233 14.0853 18.4942 13.3687 17.6733 12.7353C16.9025 12.1374 16.2337 11.6208 16.2337 10.5833C16.2337 9.54784 16.9004 9.027 17.6754 8.43117C18.115 8.17075 18.4858 7.83117 18.7837 7.4145C19.0817 6.99784 19.2858 6.5395 19.3921 6.0395H21.815V10.4249C21.815 10.5333 21.8546 10.6291 21.9317 10.7062C22.0087 10.7833 22.1046 10.8228 22.2129 10.8228C22.3233 10.8228 22.4171 10.7833 22.4962 10.7062C22.5733 10.6291 22.6129 10.5333 22.6129 10.4249V3.51034C22.6129 3.31867 22.5754 3.13117 22.5004 2.95408C22.4275 2.77492 22.3212 2.61659 22.1837 2.47909C22.0483 2.34367 21.89 2.23742 21.7108 2.1645C21.5337 2.0895 21.3462 2.052 21.1525 2.052ZM12.2087 6.0395C12.0942 6.41034 11.9171 6.74575 11.6754 7.04992C11.4337 7.352 11.1442 7.59992 10.8067 7.79367C9.9879 8.43117 9.05874 9.14784 9.05874 10.5833C9.05874 12.0187 9.9879 12.7353 10.8067 13.3687C11.5796 13.9666 12.2462 14.4833 12.2462 15.5208C12.2462 16.5562 11.5796 17.0791 10.8067 17.677C9.98582 18.3145 9.05874 19.0333 9.05874 20.4645C9.05874 21.8958 9.98582 22.6166 10.8067 23.2541C11.5796 23.8541 12.2462 24.3708 12.2462 25.4124C12.2462 26.4541 11.5796 26.9687 10.8067 27.5666C10.3671 27.827 9.99624 28.1666 9.69832 28.5833C9.4004 28.9999 9.19624 29.4583 9.08999 29.9583H3.51499C3.62749 29.5874 3.80457 29.2478 4.04832 28.9458C4.28999 28.6416 4.57957 28.3916 4.91707 28.1978C5.73582 27.5666 6.66499 26.8416 6.66499 25.4145C6.66499 23.9853 5.7379 23.2603 4.91707 22.6228C4.14415 22.0228 3.47749 21.5062 3.47749 20.4645C3.47749 19.4208 4.14415 18.9062 4.91707 18.3103C5.7379 17.6728 6.66499 16.9562 6.66499 15.5208C6.66499 14.0853 5.73582 13.3749 4.91499 12.7353C4.14415 12.1374 3.47749 11.6208 3.47749 10.5833C3.47749 9.54784 4.14415 9.027 4.91707 8.43117C5.35874 8.16867 5.72749 7.83117 6.0254 7.4145C6.32332 6.99784 6.52749 6.5395 6.63165 6.0395H12.2087ZM4.42749 7.79367C3.60874 8.43117 2.67957 9.14784 2.67957 10.5833C2.67957 12.0187 3.60874 12.7353 4.42957 13.3687C5.2004 13.9666 5.86915 14.4833 5.86915 15.5208C5.86915 16.5562 5.2004 17.0791 4.42749 17.6791C3.60665 18.3124 2.67957 19.0353 2.67957 20.4645C2.67957 21.8937 3.60874 22.6166 4.42749 23.2541C5.2004 23.852 5.86915 24.3687 5.86915 25.4145C5.86915 26.4583 5.2004 26.9687 4.42749 27.5666C3.98582 27.827 3.61707 28.1666 3.31915 28.5833C3.01915 28.9999 2.81707 29.4583 2.71082 29.9583H1.08374V6.0395H5.82957C5.71499 6.41034 5.5379 6.74575 5.29624 7.04992C5.05457 7.352 4.76499 7.59992 4.42749 7.79367ZM21.815 32.4853C21.815 32.5728 21.7983 32.6583 21.765 32.7395C21.7317 32.8208 21.6837 32.8916 21.6212 32.9541C21.5587 33.0166 21.4879 33.0645 21.4067 33.0978C21.3254 33.1312 21.2421 33.1478 21.1525 33.1478H1.74624C1.65874 33.1478 1.5754 33.1312 1.49415 33.0978C1.4129 33.0645 1.33999 33.0166 1.27957 32.9541C1.21707 32.8916 1.16915 32.8208 1.13582 32.7395C1.10249 32.6583 1.08582 32.5728 1.08374 32.4853V30.7562H21.815V32.4853ZM17.19 7.79367C16.3671 8.43117 15.4358 9.14784 15.4358 10.5833C15.4358 12.0187 16.3671 12.7353 17.1858 13.3687C17.9587 13.9666 18.6254 14.4833 18.6254 15.5208C18.6254 16.5562 17.9587 17.0791 17.1858 17.677C16.365 18.3145 15.4358 19.0333 15.4358 20.4645C15.4358 21.8958 16.365 22.6166 17.1858 23.2541C17.9587 23.8541 18.6254 24.3708 18.6254 25.4124C18.6254 26.4541 17.9587 26.9687 17.1858 27.5666C16.7462 27.827 16.3754 28.1666 16.0775 28.5833C15.7796 28.9999 15.5754 29.4583 15.4692 29.9583H9.89415C10.0067 29.5874 10.1837 29.2478 10.4275 28.9458C10.6692 28.6416 10.9587 28.3916 11.2962 28.1978C12.115 27.5666 13.0442 26.8416 13.0442 25.4145C13.0442 23.9853 12.115 23.2603 11.2962 22.6228C10.5233 22.0228 9.85457 21.5062 9.85457 20.4645C9.85457 19.4208 10.5233 18.9062 11.2962 18.3103C12.115 17.6728 13.0442 16.9562 13.0442 15.5208C13.0442 14.0853 12.115 13.3687 11.2962 12.7353C10.5233 12.1374 9.85457 11.6208 9.85457 10.5833C9.85457 9.54784 10.5233 9.027 11.2962 8.43117C11.7358 8.17075 12.1067 7.83117 12.4046 7.4145C12.7025 6.99784 12.9067 6.5395 13.0129 6.0395H18.5879C18.4754 6.41034 18.2983 6.74575 18.0567 7.04992C17.815 7.352 17.5275 7.59992 17.19 7.79367ZM1.08374 5.24159V3.51034C1.08582 3.42284 1.10249 3.3395 1.13582 3.25825C1.16915 3.177 1.21707 3.10617 1.27957 3.04367C1.33999 2.98117 1.4129 2.93325 1.49415 2.89992C1.5754 2.86659 1.65874 2.84992 1.74624 2.84992H21.1525C21.2421 2.84992 21.3254 2.86659 21.4067 2.89992C21.4879 2.93325 21.5587 2.98117 21.6212 3.04367C21.6837 3.10617 21.7317 3.177 21.765 3.25825C21.7983 3.3395 21.815 3.42284 21.815 3.51034V5.24159H1.08374Z" fill="white"/>
</g>
</svg>
