<svg width="34" height="34" viewBox="0 0 34 34" fill="none" xmlns="http://www.w3.org/2000/svg">
<mask id="mask0_1_269" style="mask-type:luminance" maskUnits="userSpaceOnUse" x="0" y="0" width="34" height="34">
<path d="M0.625854 0.435303H33.8259V33.6353H0.625854V0.435303Z" fill="white"/>
</mask>
<g mask="url(#mask0_1_269)">
<path d="M33.7509 0.697803C33.7509 0.55197 33.6321 0.435303 33.4884 0.435303H0.888355C0.744605 0.435303 0.625854 0.55197 0.625854 0.697803V1.84364C0.625854 1.85614 0.632105 1.86864 0.634188 1.88114C0.632105 1.89364 0.625854 1.90614 0.625854 1.91864V33.2978C0.625854 33.4436 0.744605 33.5603 0.888355 33.5603H7.46127C7.53627 33.5603 7.6071 33.5291 7.6571 33.4728C7.7071 33.4166 7.73002 33.3436 7.72169 33.2686C7.71544 33.1978 6.92794 26.3395 4.41961 21.8624C9.67169 18.0291 12.6759 12.7166 13.3675 6.0228H21.0092C21.6988 12.7166 24.7029 18.0291 29.955 21.8624C27.4488 26.3395 26.6613 33.1978 26.6529 33.2686C26.6446 33.3436 26.6696 33.4166 26.7196 33.4728C26.7696 33.5291 26.8404 33.5603 26.9154 33.5603H33.4884C33.6321 33.5603 33.7509 33.4436 33.7509 33.2978V1.91864C33.7509 1.90614 33.7446 1.89364 33.7425 1.88114C33.7446 1.86864 33.7509 1.85614 33.7509 1.84364V0.697803ZM20.605 5.4978V4.17072H21.655V5.4978H20.605ZM12.7217 5.4978V4.17072H13.7717V5.4978H12.7217ZM4.50502 2.10614V5.31864C4.31335 5.4228 4.12585 5.4978 3.84669 5.4978C3.50085 5.4978 3.25919 5.38114 3.02585 5.24155V2.10614H4.50502ZM6.67377 2.10614V4.91864C6.4696 4.8603 6.24044 4.81864 5.97377 4.81864C5.91544 4.81864 5.86127 4.8228 5.8071 4.82697C5.80502 4.82697 5.80502 4.82697 5.80294 4.82697C5.80085 4.82697 5.79877 4.82697 5.79877 4.82697C5.47794 4.8478 5.23627 4.92697 5.0321 5.02489V2.10614H6.67377ZM9.31127 2.10614V4.75197C9.21336 4.92489 8.84252 5.4978 8.27169 5.4978C7.94252 5.4978 7.68419 5.36655 7.38627 5.21655C7.32585 5.18739 7.26335 5.15405 7.19877 5.12489V2.10614H9.31127ZM29.3446 2.10614V5.02489C29.1404 4.92697 28.8967 4.84989 28.5779 4.82697C28.5759 4.82697 28.5759 4.82697 28.5738 4.82697C28.5717 4.82697 28.5717 4.82697 28.5696 4.82697C28.5154 4.8228 28.4613 4.82072 28.4029 4.82072C28.1342 4.82072 27.9071 4.8603 27.7029 4.91864V2.10614H29.3446ZM31.3529 2.10614V5.24155C31.1175 5.38114 30.8759 5.4978 30.53 5.4978C30.2509 5.4978 30.0634 5.4228 29.8717 5.31864V2.10614H31.3529ZM33.2259 2.10614V5.0728C33.0279 4.93114 32.7696 4.82072 32.4467 4.82072C32.2279 4.82072 32.0446 4.8728 31.8779 4.94572V2.10614H33.2259ZM33.2259 20.9436C27.2738 17.0332 24.1946 12.2749 23.5634 6.0228H24.5404V6.61655C24.5404 6.62489 24.5446 6.63322 24.5446 6.64155C24.5467 6.65822 24.5488 6.67489 24.555 6.69364C24.5613 6.7103 24.5675 6.72489 24.5759 6.74155C24.5779 6.7478 24.58 6.75614 24.5842 6.76447C24.5946 6.77697 24.705 6.93739 24.9279 7.10197C26.1738 12.8749 28.9634 17.1041 33.2259 19.6791V20.9436ZM24.5404 4.17072V5.4978H23.7571V4.17072H24.5404ZM25.3071 6.72489C25.305 6.72489 25.3029 6.7228 25.3009 6.7228C25.1842 6.64572 25.1092 6.5728 25.0654 6.5228V5.5853C25.2654 5.76864 25.5259 5.93322 25.8404 5.99572V6.92489C25.6134 6.88947 25.4363 6.8103 25.3071 6.72489ZM26.3675 6.00197C26.6759 5.95614 26.9321 5.8353 27.1779 5.7103V6.58322C27.1092 6.61447 27.0446 6.6478 26.9821 6.68114C26.78 6.7853 26.5988 6.87697 26.3675 6.91864V6.00197ZM27.7029 5.47072C27.8821 5.40405 28.0779 5.3603 28.3113 5.34989V6.36864C28.2509 6.36239 28.1967 6.35405 28.1342 6.35405C27.9738 6.35405 27.8321 6.3728 27.7029 6.39989V5.47072ZM28.8363 5.3978C29.0342 5.4478 29.1904 5.53114 29.3446 5.62072V6.64989C29.1821 6.58114 29.0154 6.51447 28.8363 6.46239V5.3978ZM29.8717 5.89989C30.0029 5.95197 30.1509 5.99364 30.3238 6.0103V6.93322C30.1634 6.91864 30.0134 6.89155 29.8717 6.8478V5.89989ZM30.8488 5.99572C31.0404 5.96239 31.205 5.90614 31.3529 5.83739V6.67489C31.2029 6.76655 31.055 6.85405 30.8488 6.90405V5.99572ZM31.8779 5.53947C32.0342 5.4478 32.1779 5.37905 32.3425 5.35822V6.40197C32.2925 6.39572 32.2446 6.38739 32.1946 6.38739C32.0759 6.38739 31.9738 6.40614 31.8779 6.43114V5.53947ZM32.8675 5.47072C33.0571 5.58739 33.1759 5.74989 33.2259 5.83114V6.70405C33.1196 6.64364 32.9967 6.5853 32.8675 6.53322V5.47072ZM27.1779 5.12489C27.1134 5.15614 27.0509 5.18739 26.9904 5.21655C26.6925 5.36655 26.4342 5.4978 26.105 5.4978C25.5404 5.4978 25.1654 4.9228 25.0654 4.75197V2.10614H27.1779V5.12489ZM24.5404 3.64572H9.83627V2.10614H24.5404V3.64572ZM1.15085 19.6791C5.41335 17.1041 8.20294 12.8749 9.44877 7.10197C9.67169 6.93739 9.78211 6.77697 9.79252 6.76447C9.79669 6.75614 9.79877 6.7478 9.80085 6.74155C9.80919 6.72489 9.81544 6.7103 9.82169 6.69364C9.82794 6.67697 9.83002 6.6603 9.8321 6.64155C9.8321 6.63322 9.83627 6.62697 9.83627 6.61655V6.0228H10.8134C10.1821 12.2749 7.10294 17.0332 1.15085 20.9436V19.6791ZM7.3946 6.68114C7.33211 6.6478 7.26752 6.61447 7.19877 6.58322V5.7103C7.4446 5.8353 7.70085 5.95614 8.00919 6.00197V6.92072C7.77794 6.87697 7.59669 6.7853 7.3946 6.68114ZM4.05294 6.93322V6.0103C4.22586 5.99364 4.37377 5.95197 4.50502 5.89989V6.8478C4.36335 6.89155 4.21336 6.91864 4.05294 6.93322ZM3.02377 6.67489V5.83739C3.17169 5.90614 3.33627 5.96239 3.52794 5.99364V6.90405C3.32169 6.85405 3.17377 6.76655 3.02377 6.67489ZM1.15085 5.83114C1.20085 5.74989 1.31961 5.58739 1.50919 5.47072V6.53322C1.38002 6.5853 1.2571 6.64364 1.15085 6.70405V5.83114ZM2.03419 5.35822C2.19669 5.37905 2.34252 5.4478 2.49877 5.53947V6.43114C2.40294 6.40614 2.30085 6.38739 2.1821 6.38739C2.1321 6.38739 2.08419 6.3978 2.03419 6.40197V5.35822ZM5.0321 5.62072C5.18627 5.53114 5.34252 5.4478 5.54044 5.3978V6.46239C5.36127 6.51447 5.1946 6.58114 5.0321 6.64989V5.62072ZM6.06544 5.34989C6.29877 5.3603 6.4946 5.40405 6.67377 5.47072V6.39989C6.5446 6.3728 6.40294 6.35405 6.24252 6.35405C6.18002 6.35405 6.12585 6.36239 6.06544 6.36864V5.34989ZM8.53627 5.99572C8.85085 5.93322 9.11127 5.76864 9.31127 5.5853V6.5228C9.26752 6.5728 9.19044 6.6478 9.07586 6.7228C9.07377 6.7228 9.07169 6.7228 9.0696 6.72489C8.94044 6.80822 8.76336 6.88947 8.53627 6.92489V5.99572ZM9.83627 5.4978V4.17072H10.6175V5.4978H9.83627ZM2.49877 4.94572C2.3321 4.8728 2.14877 4.82072 1.93002 4.82072C1.6071 4.82072 1.34877 4.93114 1.15085 5.0728V2.10614H2.49877V4.94572ZM1.15085 7.33322C1.36127 7.1728 1.78419 6.91239 2.1821 6.91239C2.41335 6.91239 2.55085 6.9978 2.74044 7.11655C2.97794 7.26239 3.2696 7.43947 3.77794 7.46447C3.7821 7.46447 3.78419 7.46864 3.79044 7.46864C3.79252 7.46864 3.7946 7.46655 3.79669 7.46655C3.8321 7.46655 3.86335 7.47072 3.89669 7.47072C4.27794 7.47072 4.58627 7.3853 4.86961 7.27905H4.87169C4.9821 7.23947 5.08836 7.19572 5.1946 7.15197C5.53002 7.01239 5.84669 6.87905 6.24252 6.87905C6.63419 6.87905 6.87585 7.00405 7.15294 7.1478C7.44252 7.2978 7.77169 7.46655 8.2696 7.47072H8.27169C8.27377 7.47072 8.27377 7.47072 8.27586 7.47072C8.27794 7.47072 8.2821 7.47072 8.28627 7.47072C8.49252 7.47072 8.67794 7.44155 8.84044 7.39572C7.60294 12.7603 5.08211 16.5832 1.15085 19.0582V18.2916C3.4821 16.227 4.94252 13.0332 5.49252 8.7978C5.51127 8.65405 5.40919 8.52072 5.26544 8.50197C5.12169 8.48322 4.99044 8.5853 4.97169 8.72905C4.46544 12.6186 3.1821 15.5916 1.15085 17.577V15.9541C2.30502 14.0791 2.82377 11.9561 2.6946 9.64155C2.68627 9.49572 2.56127 9.3853 2.41752 9.39364C2.27169 9.40197 2.16127 9.52697 2.16961 9.67072C2.27377 11.5457 1.92794 13.2832 1.15085 14.8582V7.33322ZM1.15085 21.5707C7.45085 17.5207 10.6967 12.5728 11.3425 6.0228H11.78C11.1384 13.027 7.56336 18.4666 1.15085 22.202V21.5707ZM11.1446 5.4978V4.17072H12.1946V5.4978H11.1446ZM14.2988 4.17072H15.3488V5.4978H14.2988V4.17072ZM15.8738 4.17072H16.9259V5.4978H15.8738V4.17072ZM17.4509 4.17072H18.5029V5.4978H17.4509V4.17072ZM19.0279 4.17072H20.08V5.4978H19.0279V4.17072ZM22.1821 4.17072H23.2321V5.4978H22.1821V4.17072ZM23.0342 6.0228C23.68 12.5728 26.9259 17.5207 33.2259 21.5707V22.202C26.8134 18.4666 23.2384 13.027 22.5967 6.0228H23.0342ZM31.9592 9.39364C31.8196 9.3853 31.6904 9.4978 31.6821 9.64155C31.5529 11.9561 32.0717 14.0791 33.2259 15.9541V17.577C31.1946 15.5916 29.9113 12.6186 29.405 8.72905C29.3863 8.5853 29.255 8.48322 29.1113 8.50197C28.9675 8.52072 28.8654 8.65197 28.8842 8.7978C29.4342 13.0332 30.8946 16.227 33.2259 18.2916V19.0561C29.2946 16.5832 26.7738 12.7603 25.5363 7.39572C25.6988 7.44155 25.8821 7.47072 26.0904 7.47072C26.0946 7.47072 26.0988 7.47072 26.1009 7.47072C26.1029 7.47072 26.1029 7.47072 26.1029 7.47072C26.105 7.47072 26.105 7.46864 26.1071 7.46864C26.605 7.46655 26.9342 7.2978 27.2238 7.1478C27.5009 7.00405 27.7425 6.87905 28.1342 6.87905C28.53 6.87905 28.8467 7.01239 29.1821 7.14989C29.2884 7.19364 29.3946 7.23739 29.505 7.27905C29.505 7.27905 29.505 7.27905 29.5071 7.27905C29.7904 7.3853 30.0988 7.47072 30.4779 7.47072C30.5134 7.47072 30.5446 7.46655 30.5779 7.46655C30.5821 7.46655 30.5842 7.46655 30.5863 7.46655C30.5904 7.46655 30.5946 7.46447 30.5988 7.46447C31.1071 7.43947 31.3988 7.26239 31.6363 7.11655C31.8259 6.9978 31.9634 6.91239 32.1946 6.91239C32.6196 6.91239 33.0467 7.1978 33.2238 7.33322V14.8582C32.4467 13.2832 32.1009 11.5457 32.2071 9.67072C32.2154 9.52697 32.105 9.40197 31.9592 9.39364ZM1.15085 0.960303H33.2259V1.58114H1.15085V0.960303ZM7.16335 33.0353H1.15085V23.9041C1.27377 23.8395 1.3946 23.7728 1.51544 23.7061C1.71752 24.5166 2.20294 26.9395 2.20294 31.4561C2.20294 31.602 2.32169 31.7207 2.46544 31.7207C2.61127 31.7207 2.73002 31.602 2.73002 31.4561C2.73002 26.5978 2.1821 24.152 1.99044 23.4395C2.21127 23.3103 2.42794 23.1811 2.6446 23.0499C3.08835 24.3061 4.3071 28.0624 4.3071 31.4561C4.3071 31.602 4.42377 31.7207 4.56961 31.7207C4.71544 31.7207 4.83211 31.602 4.83211 31.4561C4.83211 27.877 3.51544 23.9228 3.10085 22.7666C3.40294 22.5707 3.69877 22.3728 3.99044 22.1686C6.1321 26.0291 6.98627 31.6936 7.16335 33.0353ZM1.15085 23.3082V22.8103C7.90086 18.9728 11.6529 13.3249 12.3071 6.0228H12.8384C12.03 13.6999 8.10085 19.5124 1.15085 23.3082ZM21.5384 6.0228H22.0696C22.7238 13.3249 26.4759 18.9728 33.2259 22.8103V23.3082C26.2759 19.5124 22.3467 13.6999 21.5384 6.0228ZM27.2134 33.0353C27.3904 31.6936 28.2446 26.0291 30.3863 22.1686C30.6779 22.3728 30.9717 22.5707 31.2759 22.7666C30.8613 23.9228 29.5446 27.877 29.5446 31.4561C29.5446 31.602 29.6613 31.7207 29.8071 31.7207C29.9529 31.7207 30.0696 31.602 30.0696 31.4561C30.0696 28.0624 31.2884 24.3061 31.7321 23.0499C31.9488 23.1811 32.1654 23.3103 32.3863 23.4395C32.1946 24.152 31.6467 26.5978 31.6467 31.4561C31.6467 31.602 31.7654 31.7207 31.9113 31.7207C32.055 31.7207 32.1738 31.602 32.1738 31.4561C32.1738 26.9395 32.6592 24.5166 32.8613 23.7082C32.9821 23.7728 33.1029 23.8395 33.2259 23.9041V33.0353H27.2134Z" fill="white"/>
</g>
</svg>
