<svg width="16" height="16" viewBox="0 0 16 16" fill="none" xmlns="http://www.w3.org/2000/svg">
<path opacity="0.5" d="M13.6914 15.0625H2.00391C1.10742 15.0625 0.410156 14.3652 0.410156 13.4688V1.78125C0.410156 0.917969 1.10742 0.1875 2.00391 0.1875H13.6914C14.5547 0.1875 15.2852 0.917969 15.2852 1.78125V13.4688C15.2852 14.3652 14.5547 15.0625 13.6914 15.0625ZM8.3125 5.03516L3.79688 9.55078L3.59766 11.4434C3.56445 11.709 3.76367 11.9082 4.0293 11.875L5.92188 11.6758L10.4375 7.16016C10.5039 7.09375 10.5039 6.96094 10.4375 6.89453L8.57812 5.03516C8.51172 4.96875 8.37891 4.96875 8.3125 5.03516ZM11.8652 4.63672L10.8359 3.60742C10.5371 3.30859 10.0391 3.30859 9.74023 3.60742L8.94336 4.4043C8.87695 4.4707 8.87695 4.60352 8.94336 4.66992L10.8027 6.5293C10.8691 6.5957 11.002 6.5957 11.0684 6.5293L11.8652 5.73242C12.1641 5.43359 12.1641 4.93555 11.8652 4.63672Z" fill="#444444"/>
</svg>
