<svg width="18" height="13" viewBox="0 0 18 13" fill="none" xmlns="http://www.w3.org/2000/svg">
<path opacity="0.5" d="M17.1992 4.4668C17.332 4.36719 17.5312 4.4668 17.5312 4.63281V11.4062C17.5312 12.3027 16.8008 13 15.9375 13H2.125C1.22852 13 0.53125 12.3027 0.53125 11.4062V4.63281C0.53125 4.4668 0.697266 4.36719 0.830078 4.4668C1.59375 5.06445 2.55664 5.79492 5.94336 8.25195C6.64062 8.75 7.83594 9.8457 9.03125 9.8457C10.1934 9.8457 11.4219 8.75 12.0859 8.25195C15.4727 5.79492 16.4355 5.06445 17.1992 4.4668ZM9.03125 8.75C8.23438 8.7832 7.13867 7.78711 6.57422 7.38867C2.1582 4.20117 1.82617 3.90234 0.830078 3.10547C0.630859 2.97266 0.53125 2.74023 0.53125 2.47461V1.84375C0.53125 0.980469 1.22852 0.25 2.125 0.25H15.9375C16.8008 0.25 17.5312 0.980469 17.5312 1.84375V2.47461C17.5312 2.74023 17.3984 2.97266 17.1992 3.10547C16.2031 3.90234 15.8711 4.20117 11.4551 7.38867C10.8906 7.78711 9.79492 8.7832 9.03125 8.75Z" fill="#444444"/>
</svg>
