<svg width="39" height="28" viewBox="0 0 39 28" fill="none" xmlns="http://www.w3.org/2000/svg">
<path d="M38.0773 14.8917L28.8356 9.34587H28.8335L27.3939 8.4792L28.7273 7.63128C28.9523 7.48753 29.0877 7.23962 29.0877 6.97087C29.0877 6.7042 28.9523 6.45628 28.7273 6.31253L20.1398 0.847949C19.8835 0.685449 19.5564 0.685449 19.3002 0.847949L10.7127 6.31253C10.4877 6.45837 10.3523 6.70628 10.3523 6.97295C10.3523 7.23962 10.4877 7.48753 10.7127 7.63128L12.046 8.48128L10.6044 9.34587H10.6023L1.36061 14.8917C1.12728 15.0334 0.983529 15.2854 0.981445 15.5584C0.981445 15.8334 1.12311 16.0854 1.35644 16.2292L19.3127 27.1584C19.4377 27.2334 19.5773 27.273 19.7189 27.273C19.8585 27.273 20.0002 27.2355 20.1252 27.1584L38.0814 16.2292C38.3148 16.0875 38.4564 15.8334 38.4564 15.5584C38.4564 15.2854 38.3127 15.0313 38.0773 14.8917ZM10.9314 20.2271L3.27311 15.5646L10.9939 10.9334L18.2648 15.5604L10.9314 20.2271ZM19.721 14.6355L12.4919 10.0354L13.521 9.41878L19.3002 13.0979C19.4294 13.1792 19.5731 13.2188 19.721 13.2188C19.8669 13.2188 20.0127 13.1792 20.1398 13.0979L25.9231 9.41878L26.9502 10.0354L19.721 14.6355ZM28.5085 20.2271L21.1731 15.5604L28.446 10.9334L36.1669 15.5646L28.5085 20.2271Z" fill="white"/>
</svg>
