<svg width="10" height="13" viewBox="0 0 10 13" fill="none" xmlns="http://www.w3.org/2000/svg">
<path d="M4.92913 11.838C1.52371 6.90112 0.891602 6.39445 0.891602 4.58008C0.891602 2.09479 2.90631 0.0800781 5.3916 0.0800781C7.87689 0.0800781 9.8916 2.09479 9.8916 4.58008C9.8916 6.39445 9.25949 6.90112 5.85407 11.838C5.63059 12.1608 5.15259 12.1608 4.92913 11.838ZM5.3916 6.45508C6.42714 6.45508 7.2666 5.61562 7.2666 4.58008C7.2666 3.54454 6.42714 2.70508 5.3916 2.70508C4.35606 2.70508 3.5166 3.54454 3.5166 4.58008C3.5166 5.61562 4.35606 6.45508 5.3916 6.45508Z" fill="white"/>
</svg>
