<svg width="110" height="24" viewBox="0 0 110 24" fill="none" xmlns="http://www.w3.org/2000/svg">
<path d="M17 18H1V10.8511L10.0435 2L17 8.80851" stroke="#153736" stroke-width="2" stroke-linecap="round" stroke-linejoin="round"/>
<path d="M25.86 12.02C25.86 10.66 26.1667 9.44 26.78 8.36C27.3933 7.26667 28.2267 6.41333 29.28 5.8C30.3467 5.18667 31.5267 4.88 32.82 4.88C34.34 4.88 35.6667 5.24667 36.8 5.98C37.9333 6.71333 38.76 7.75333 39.28 9.1H37.1C36.7133 8.26 36.1533 7.61333 35.42 7.16C34.7 6.70667 33.8333 6.48 32.82 6.48C31.8467 6.48 30.9733 6.70667 30.2 7.16C29.4267 7.61333 28.82 8.26 28.38 9.1C27.94 9.92667 27.72 10.9 27.72 12.02C27.72 13.1267 27.94 14.1 28.38 14.94C28.82 15.7667 29.4267 16.4067 30.2 16.86C30.9733 17.3133 31.8467 17.54 32.82 17.54C33.8333 17.54 34.7 17.32 35.42 16.88C36.1533 16.4267 36.7133 15.78 37.1 14.94H39.28C38.76 16.2733 37.9333 17.3067 36.8 18.04C35.6667 18.76 34.34 19.12 32.82 19.12C31.5267 19.12 30.3467 18.82 29.28 18.22C28.2267 17.6067 27.3933 16.76 26.78 15.68C26.1667 14.6 25.86 13.38 25.86 12.02ZM51.7092 8.04V19H49.8892V17.38C49.5426 17.94 49.0559 18.38 48.4292 18.7C47.8159 19.0067 47.1359 19.16 46.3892 19.16C45.5359 19.16 44.7692 18.9867 44.0892 18.64C43.4092 18.28 42.8692 17.7467 42.4692 17.04C42.0826 16.3333 41.8892 15.4733 41.8892 14.46V8.04H43.6892V14.22C43.6892 15.3 43.9626 16.1333 44.5092 16.72C45.0559 17.2933 45.8026 17.58 46.7492 17.58C47.7226 17.58 48.4892 17.28 49.0492 16.68C49.6092 16.08 49.8892 15.2067 49.8892 14.06V8.04H51.7092ZM56.6022 9.82C56.9222 9.19333 57.3755 8.70667 57.9622 8.36C58.5622 8.01333 59.2889 7.84 60.1422 7.84V9.72H59.6622C57.6222 9.72 56.6022 10.8267 56.6022 13.04V19H54.7822V8.04H56.6022V9.82ZM64.4631 9.54V16C64.4631 16.5333 64.5765 16.9133 64.8031 17.14C65.0298 17.3533 65.4231 17.46 65.9831 17.46H67.3231V19H65.6831C64.6698 19 63.9098 18.7667 63.4031 18.3C62.8965 17.8333 62.6431 17.0667 62.6431 16V9.54H61.2231V8.04H62.6431V5.28H64.4631V8.04H67.3231V9.54H64.4631ZM68.8483 13.48C68.8483 12.36 69.0749 11.38 69.5283 10.54C69.9816 9.68667 70.6016 9.02667 71.3883 8.56C72.1883 8.09333 73.0749 7.86 74.0483 7.86C75.0083 7.86 75.8416 8.06667 76.5483 8.48C77.2549 8.89333 77.7816 9.41333 78.1283 10.04V8.04H79.9683V19H78.1283V16.96C77.7683 17.6 77.2283 18.1333 76.5083 18.56C75.8016 18.9733 74.9749 19.18 74.0283 19.18C73.0549 19.18 72.1749 18.94 71.3883 18.46C70.6016 17.98 69.9816 17.3067 69.5283 16.44C69.0749 15.5733 68.8483 14.5867 68.8483 13.48ZM78.1283 13.5C78.1283 12.6733 77.9616 11.9533 77.6283 11.34C77.2949 10.7267 76.8416 10.26 76.2683 9.94C75.7083 9.60667 75.0883 9.44 74.4083 9.44C73.7283 9.44 73.1083 9.6 72.5483 9.92C71.9883 10.24 71.5416 10.7067 71.2083 11.32C70.8749 11.9333 70.7083 12.6533 70.7083 13.48C70.7083 14.32 70.8749 15.0533 71.2083 15.68C71.5416 16.2933 71.9883 16.7667 72.5483 17.1C73.1083 17.42 73.7283 17.58 74.4083 17.58C75.0883 17.58 75.7083 17.42 76.2683 17.1C76.8416 16.7667 77.2949 16.2933 77.6283 15.68C77.9616 15.0533 78.1283 14.3267 78.1283 13.5ZM83.9839 6.26C83.6372 6.26 83.3439 6.14 83.1039 5.9C82.8639 5.66 82.7439 5.36667 82.7439 5.02C82.7439 4.67333 82.8639 4.38 83.1039 4.14C83.3439 3.9 83.6372 3.78 83.9839 3.78C84.3172 3.78 84.5972 3.9 84.8239 4.14C85.0639 4.38 85.1839 4.67333 85.1839 5.02C85.1839 5.36667 85.0639 5.66 84.8239 5.9C84.5972 6.14 84.3172 6.26 83.9839 6.26ZM84.8639 8.04V19H83.0439V8.04H84.8639ZM93.3058 7.84C94.6391 7.84 95.7191 8.24667 96.5458 9.06C97.3724 9.86 97.7858 11.02 97.7858 12.54V19H95.9858V12.8C95.9858 11.7067 95.7124 10.8733 95.1658 10.3C94.6191 9.71333 93.8724 9.42 92.9258 9.42C91.9658 9.42 91.1991 9.72 90.6258 10.32C90.0658 10.92 89.7858 11.7933 89.7858 12.94V19H87.9658V8.04H89.7858V9.6C90.1458 9.04 90.6324 8.60667 91.2458 8.3C91.8724 7.99333 92.5591 7.84 93.3058 7.84ZM104.639 19.18C103.799 19.18 103.045 19.04 102.379 18.76C101.712 18.4667 101.185 18.0667 100.799 17.56C100.412 17.04 100.199 16.4467 100.159 15.78H102.039C102.092 16.3267 102.345 16.7733 102.799 17.12C103.265 17.4667 103.872 17.64 104.619 17.64C105.312 17.64 105.859 17.4867 106.259 17.18C106.659 16.8733 106.859 16.4867 106.859 16.02C106.859 15.54 106.645 15.1867 106.219 14.96C105.792 14.72 105.132 14.4867 104.239 14.26C103.425 14.0467 102.759 13.8333 102.239 13.62C101.732 13.3933 101.292 13.0667 100.919 12.64C100.559 12.2 100.379 11.6267 100.379 10.92C100.379 10.36 100.545 9.84667 100.879 9.38C101.212 8.91333 101.685 8.54667 102.299 8.28C102.912 8 103.612 7.86 104.399 7.86C105.612 7.86 106.592 8.16667 107.339 8.78C108.085 9.39333 108.485 10.2333 108.539 11.3H106.719C106.679 10.7267 106.445 10.2667 106.019 9.92C105.605 9.57333 105.045 9.4 104.339 9.4C103.685 9.4 103.165 9.54 102.779 9.82C102.392 10.1 102.199 10.4667 102.199 10.92C102.199 11.28 102.312 11.58 102.539 11.82C102.779 12.0467 103.072 12.2333 103.419 12.38C103.779 12.5133 104.272 12.6667 104.899 12.84C105.685 13.0533 106.325 13.2667 106.819 13.48C107.312 13.68 107.732 13.9867 108.079 14.4C108.439 14.8133 108.625 15.3533 108.639 16.02C108.639 16.62 108.472 17.16 108.139 17.64C107.805 18.12 107.332 18.5 106.719 18.78C106.119 19.0467 105.425 19.18 104.639 19.18Z" fill="#153736"/>
</svg>
