<svg width="13" height="9" viewBox="0 0 13 9" fill="none" xmlns="http://www.w3.org/2000/svg">
<path d="M12.1643 2.96211C12.2557 2.88945 12.3916 2.95742 12.3916 3.07227V7.86523C12.3916 8.48633 11.8877 8.99023 11.2666 8.99023H1.5166C0.895508 8.99023 0.391602 8.48633 0.391602 7.86523V3.07461C0.391602 2.95742 0.525195 2.8918 0.618945 2.96445C1.14395 3.37227 1.84004 3.89023 4.23066 5.62695C4.7252 5.98789 5.55957 6.74727 6.3916 6.74258C7.22832 6.74961 8.0791 5.97383 8.55488 5.62695C10.9455 3.89023 11.6393 3.36992 12.1643 2.96211ZM6.3916 5.99023C6.93535 5.99961 7.71816 5.30586 8.11191 5.01992C11.2221 2.76289 11.4588 2.56602 12.176 2.00352C12.3119 1.89805 12.3916 1.73398 12.3916 1.56055V1.11523C12.3916 0.494141 11.8877 -0.00976562 11.2666 -0.00976562H1.5166C0.895508 -0.00976563 0.391602 0.494141 0.391602 1.11523V1.56055C0.391602 1.73398 0.471289 1.8957 0.607227 2.00352C1.32441 2.56367 1.56113 2.76289 4.67129 5.01992C5.06504 5.30586 5.84785 5.99961 6.3916 5.99023Z" fill="white"/>
</svg>
