<svg width="13" height="13" viewBox="0 0 13 13" fill="none" xmlns="http://www.w3.org/2000/svg">
<path d="M12.0492 8.57982L9.42418 7.45482C9.31204 7.40703 9.18741 7.39696 9.06906 7.42612C8.9507 7.45529 8.84502 7.52211 8.76793 7.61654L7.60543 9.03685C5.78099 8.17664 4.31274 6.70839 3.45254 4.88396L4.87285 3.72146C4.96746 3.64451 5.03443 3.53883 5.06361 3.42041C5.09279 3.302 5.08259 3.17731 5.03457 3.06521L3.90957 0.440207C3.85686 0.319366 3.76364 0.220702 3.64598 0.161231C3.52832 0.101759 3.3936 0.0852057 3.26504 0.114426L0.827539 0.676926C0.703594 0.705548 0.593011 0.775335 0.513836 0.874899C0.434662 0.974463 0.391573 1.09792 0.391602 1.22513C0.391602 7.23685 5.26426 12.1001 11.2666 12.1001C11.3938 12.1002 11.5174 12.0571 11.617 11.978C11.7166 11.8988 11.7864 11.7882 11.815 11.6642L12.3775 9.22669C12.4066 9.09751 12.3897 8.96225 12.3297 8.84418C12.2698 8.72611 12.1706 8.63263 12.0492 8.57982Z" fill="white"/>
</svg>
