<svg width="32" height="34" viewBox="0 0 32 34" fill="none" xmlns="http://www.w3.org/2000/svg">
<mask id="mask0_1_260" style="mask-type:luminance" maskUnits="userSpaceOnUse" x="0" y="0" width="32" height="34">
<path d="M0.622131 0.235352H31.0221V33.7999H0.622131V0.235352Z" fill="white"/>
</mask>
<g mask="url(#mask0_1_260)">
<path d="M30.1967 0.235352H5.98007C5.42591 0.235352 4.97174 0.685352 4.97174 1.24369V2.63743H2.13424C1.30299 2.63743 0.627991 3.31244 0.627991 4.14369V7.57702C0.627991 8.24785 1.07799 8.84369 1.72591 9.02494L16.2072 15.5833C16.4217 15.6437 16.5697 15.8416 16.5697 16.0604V21.5374C16.1801 21.7062 15.9072 22.0958 15.9072 22.5499V32.6562C15.9072 33.2666 16.403 33.7604 17.0113 33.7604C17.6197 33.7604 18.1155 33.2666 18.1155 32.6562V22.5499C18.1155 22.0958 17.8426 21.7062 17.453 21.5374V16.0604C17.453 15.4479 17.0384 14.8999 16.4467 14.7333L1.96341 8.17494C1.69674 8.09994 1.51132 7.85202 1.51132 7.57702V4.14369C1.51132 3.80202 1.78841 3.52077 2.13424 3.52077H4.97174V4.91452C4.97174 5.47077 5.42174 5.92285 5.98007 5.92285H15.8238C15.9801 6.09577 16.1905 6.33744 16.2301 6.37702C16.8759 6.96452 16.1613 8.15827 16.6467 8.65827C17.1342 9.15827 17.5509 8.39369 17.2717 7.64369C17.1863 7.4166 17.0613 7.14993 16.9447 6.8791C17.253 7.16868 17.4905 7.47077 17.5926 7.77702C18.0572 9.14994 16.8967 10.0895 17.8697 10.8374C18.8426 11.5833 19.0759 11.427 18.9384 10.5229C18.7988 9.62077 18.0572 8.7166 18.5676 7.89369C18.6634 7.7416 18.7259 7.5791 18.7822 7.4166C18.8342 7.25202 18.8405 7.08744 18.8634 6.92077C18.8822 6.79369 18.9322 6.65202 19.1009 6.61869C19.6801 6.49785 19.4822 7.44369 19.4405 7.68327C19.3801 8.0166 19.2801 8.34369 19.1488 8.66452C19.1238 8.72285 19.1009 8.77702 19.0801 8.82493C18.7426 9.57285 19.8905 10.2479 20.4613 9.4916C21.028 8.73535 20.6363 7.8041 20.3926 6.97077C20.3301 6.75619 20.2113 6.40202 20.3592 6.19577C20.378 6.16868 20.4051 6.14577 20.4384 6.13535C20.6426 6.07285 20.8447 6.37702 20.9176 6.48952C21.0592 6.71035 21.1509 6.95202 21.2238 7.19369C21.4092 7.79994 21.4842 8.57285 21.3155 9.25827C21.1947 9.73327 21.0592 10.0812 20.953 10.352C20.7613 10.827 20.6697 11.0541 20.9467 11.3124C21.3842 11.7166 22.2009 12.0854 22.1822 10.9374C22.1759 10.427 22.0988 10.2104 22.0342 10.0187C21.9655 9.79994 21.9092 9.62077 21.9926 9.0916C22.0009 9.03327 22.0134 8.97285 22.0259 8.90619C22.2509 7.69993 21.8509 7.05202 22.4967 7.6416C23.1384 8.23119 22.4259 9.42285 22.9134 9.92285C23.3988 10.4229 23.8176 9.65619 23.5384 8.90619C23.2613 8.15619 22.5467 7.00619 23.0863 6.62285C23.6238 6.23952 23.9884 6.3291 23.9384 7.34369C23.8863 8.35827 24.4447 8.62494 24.6863 8.27285C24.9322 7.91868 24.028 7.19577 24.3384 6.68119C24.653 6.16868 25.5072 6.2541 25.4009 6.94577C25.2947 7.63743 24.9842 9.58119 25.5405 10.0979C26.0967 10.6124 26.8113 10.1562 26.6009 9.5666C26.3926 8.9791 25.5926 8.46452 25.9072 7.68327C26.2176 6.90202 27.0717 6.8291 27.4551 7.53535C27.8384 8.2416 26.7613 10.4791 26.953 11.1708C27.1447 11.8645 27.9592 12.0687 28.3092 11.2604C28.6572 10.452 26.803 7.34368 28.5009 6.46244C28.8676 6.27077 29.1592 6.0916 29.3905 5.9291H30.2009C30.7572 5.9291 31.2113 5.4791 31.2113 4.91868V1.24369C31.2051 0.685352 30.7551 0.235352 30.1967 0.235352Z" fill="white"/>
</g>
</svg>
