<svg width="21" height="37" viewBox="0 0 21 37" fill="none" xmlns="http://www.w3.org/2000/svg">
<mask id="mask0_2011_5" style="mask-type:luminance" maskUnits="userSpaceOnUse" x="0" y="3" width="21" height="31">
<path d="M0.818359 3.33325H20.0184V33.1999H0.818359V3.33325Z" fill="white"/>
</mask>
<g mask="url(#mask0_2011_5)">
<path fill-rule="evenodd" clip-rule="evenodd" d="M18.5931 32.6873H2.18268C1.43268 32.6873 0.822266 32.0769 0.822266 31.3269V4.91022C0.822266 4.15814 1.43268 3.5498 2.18268 3.5498H18.5931C19.3431 3.5498 19.9535 4.16022 19.9535 4.91022V31.3269C19.9535 32.0769 19.3431 32.6873 18.5931 32.6873ZM14.9723 30.2102H5.75352C5.14102 30.2102 5.42643 29.4686 5.42643 29.2561C5.42643 28.4456 4.74727 27.7998 3.91185 27.8561C3.67435 27.8727 3.47227 27.6852 3.47227 27.4477V9.22272C3.47227 8.84147 3.80143 8.82064 4.02227 8.82064C5.0056 8.82064 5.67643 7.83522 5.33893 6.92897C5.23893 6.6623 5.43893 6.37689 5.72227 6.37689H14.9993C15.6452 6.37689 15.2973 7.15605 15.2973 7.41647C15.2973 8.23314 15.9973 8.88105 16.8098 8.81439C17.0452 8.79564 17.2514 8.9873 17.2514 9.22272V27.4477C17.2514 27.8248 16.9285 27.8519 16.6993 27.8519C15.7473 27.8519 15.0785 28.7852 15.3618 29.679C15.4452 29.9394 15.2493 30.2102 14.9723 30.2102ZM6.24102 29.3915H14.4827C14.4098 28.2081 15.2806 27.1894 16.4327 27.0498V9.62272C15.2473 9.47897 14.3702 8.41439 14.4889 7.19564H6.23477C6.35352 8.4123 5.47643 9.47897 4.2931 9.62272V27.0498C5.4431 27.1873 6.31602 28.2102 6.24102 29.3915ZM10.3639 26.6373C10.0598 26.6373 9.54935 26.4331 9.40768 26.1686L5.31393 18.4852C5.24935 18.3665 5.24935 18.2206 5.31393 18.0998C5.73893 17.3061 9.35143 10.4269 9.50768 10.2956C10.2618 9.66439 11.1202 10.0498 11.316 10.4165L15.4098 18.1019C15.4743 18.2206 15.4743 18.3665 15.4098 18.4852C14.9848 19.2811 11.3785 26.154 11.2202 26.2894C10.9493 26.5206 10.6618 26.6373 10.3639 26.6373ZM10.091 25.7081C10.2889 25.8519 10.4368 25.854 10.6327 25.7102L14.5848 18.2936L10.6327 10.8769C10.4368 10.7331 10.2889 10.7352 10.091 10.879L6.13893 18.2936L10.091 25.7081ZM10.3618 22.7227C10.2118 22.7227 10.0723 22.6394 10.0014 22.5061L7.85768 18.4852C7.79518 18.3644 7.79518 18.2206 7.85768 18.0998L10.0014 14.0811C10.1535 13.7915 10.5702 13.7915 10.7243 14.0811L12.866 18.0998C12.9306 18.2206 12.9306 18.3644 12.866 18.4852L10.7243 22.5061C10.6514 22.6394 10.5139 22.7227 10.3618 22.7227ZM8.68477 18.2936L10.3618 21.4415L12.041 18.2936L10.3618 15.1436L8.68477 18.2936Z" fill="white"/>
</g>
<mask id="mask1_2011_5" style="mask-type:luminance" maskUnits="userSpaceOnUse" x="2" y="0" width="17" height="37">
<path d="M2.65637 0.133301H18.123V36.0687H2.65637V0.133301Z" fill="white"/>
</mask>
<g mask="url(#mask1_2011_5)">
<path fill-rule="evenodd" clip-rule="evenodd" d="M3.52063 4.71047C3.10605 4.71047 2.77063 4.37297 2.77063 3.95838V1.0563C2.77063 0.0687988 4.27063 0.0687988 4.27063 1.0563V3.95838C4.27063 4.37297 3.93521 4.71047 3.52063 4.71047ZM8.09771 4.71047C7.68521 4.71047 7.34771 4.37297 7.34771 3.95838V1.0563C7.34771 0.0687988 8.8498 0.0687988 8.8498 1.0563V3.95838C8.8498 4.37297 8.5123 4.71047 8.09771 4.71047ZM12.6769 4.71047C12.2623 4.71047 11.9269 4.37297 11.9269 3.95838V1.0563C11.9269 0.0687988 13.429 0.0687988 13.429 1.0563V3.95838C13.429 4.37297 13.0915 4.71047 12.6769 4.71047ZM17.256 4.71047C16.8415 4.71047 16.504 4.37297 16.504 3.95838V1.0563C16.504 0.0687988 18.006 0.0687988 18.006 1.0563V3.95838C18.006 4.37297 17.6685 4.71047 17.256 4.71047ZM3.52063 35.9313C3.10605 35.9313 2.77063 35.5938 2.77063 35.1792V32.2792C2.77063 31.2896 4.27063 31.2896 4.27063 32.2792V35.1792C4.27063 35.5938 3.93521 35.9313 3.52063 35.9313ZM8.09771 35.9313C7.68313 35.9313 7.34771 35.5938 7.34771 35.1792V32.2792C7.34771 31.2896 8.8498 31.2896 8.8498 32.2792V35.1792C8.8498 35.5938 8.5123 35.9313 8.09771 35.9313ZM12.6769 35.9313C12.2623 35.9313 11.9269 35.5938 11.9269 35.1792V32.2792C11.9269 31.2896 13.4269 31.2896 13.4269 32.2792V35.1792C13.4269 35.5938 13.0915 35.9313 12.6769 35.9313ZM17.254 35.9313C16.8415 35.9313 16.504 35.5938 16.504 35.1792V32.2792C16.504 31.2896 18.006 31.2896 18.006 32.2792V35.1792C18.006 35.5938 17.6685 35.9313 17.254 35.9313Z" fill="white"/>
</g>
</svg>
