<svg width="16" height="18" viewBox="0 0 16 18" fill="none" xmlns="http://www.w3.org/2000/svg">
<path opacity="0.5" d="M8.09766 8.625C5.74023 8.625 3.84766 6.73242 3.84766 4.375C3.84766 2.05078 5.74023 0.125 8.09766 0.125C10.4219 0.125 12.3477 2.05078 12.3477 4.375C12.3477 6.73242 10.4219 8.625 8.09766 8.625ZM11.0527 9.6875C13.5098 9.6875 15.5352 11.7129 15.5352 14.1699V15.5312C15.5352 16.4277 14.8047 17.125 13.9414 17.125H2.25391C1.35742 17.125 0.660156 16.4277 0.660156 15.5312V14.1699C0.660156 11.7129 2.65234 9.6875 5.10938 9.6875H5.67383C6.4043 10.0527 7.23438 10.2188 8.09766 10.2188C8.96094 10.2188 9.75781 10.0527 10.4883 9.6875H11.0527Z" fill="#444444"/>
</svg>
