<svg width="173" height="55" viewBox="0 0 173 55" fill="none" xmlns="http://www.w3.org/2000/svg">
<path d="M53 53.8105H1V30.5765L30.3913 1.81055L53 23.9382" stroke="white" stroke-width="2" stroke-linecap="round" stroke-linejoin="round"/>
<mask id="path-2-outside-1_2001_2" maskUnits="userSpaceOnUse" x="29" y="22.8105" width="144" height="29" fill="black">
<rect fill="white" x="29" y="22.8105" width="144" height="29"/>
<path d="M30.462 37.9445C30.462 35.6325 30.9833 33.5585 32.026 31.7225C33.0687 29.8639 34.4853 28.4132 36.276 27.3705C38.0893 26.3279 40.0953 25.8065 42.294 25.8065C44.878 25.8065 47.1333 26.4299 49.06 27.6765C50.9867 28.9232 52.392 30.6912 53.276 32.9805H49.57C48.9127 31.5525 47.9607 30.4532 46.714 29.6825C45.49 28.9119 44.0167 28.5265 42.294 28.5265C40.6393 28.5265 39.1547 28.9119 37.84 29.6825C36.5253 30.4532 35.494 31.5525 34.746 32.9805C33.998 34.3859 33.624 36.0405 33.624 37.9445C33.624 39.8259 33.998 41.4805 34.746 42.9085C35.494 44.3139 36.5253 45.4019 37.84 46.1725C39.1547 46.9432 40.6393 47.3285 42.294 47.3285C44.0167 47.3285 45.49 46.9545 46.714 46.2065C47.9607 45.4359 48.9127 44.3365 49.57 42.9085H53.276C52.392 45.1752 50.9867 46.9319 49.06 48.1785C47.1333 49.4025 44.878 50.0145 42.294 50.0145C40.0953 50.0145 38.0893 49.5045 36.276 48.4845C34.4853 47.4419 33.0687 46.0025 32.026 44.1665C30.9833 42.3305 30.462 40.2565 30.462 37.9445ZM74.4057 31.1785V49.8105H71.3117V47.0565C70.7223 48.0085 69.895 48.7565 68.8297 49.3005C67.787 49.8219 66.631 50.0825 65.3617 50.0825C63.911 50.0825 62.6077 49.7879 61.4517 49.1985C60.2957 48.5865 59.3777 47.6799 58.6977 46.4785C58.0403 45.2772 57.7117 43.8152 57.7117 42.0925V31.1785H60.7717V41.6845C60.7717 43.5205 61.2363 44.9372 62.1657 45.9345C63.095 46.9092 64.3643 47.3965 65.9737 47.3965C67.6283 47.3965 68.9317 46.8865 69.8837 45.8665C70.8357 44.8465 71.3117 43.3619 71.3117 41.4125V31.1785H74.4057ZM82.7237 34.2045C83.2677 33.1392 84.0384 32.3119 85.0357 31.7225C86.0557 31.1332 87.2911 30.8385 88.7417 30.8385V34.0345H87.9257C84.4577 34.0345 82.7237 35.9159 82.7237 39.6785V49.8105H79.6297V31.1785H82.7237V34.2045ZM96.0873 33.7285V44.7105C96.0873 45.6172 96.28 46.2632 96.6653 46.6485C97.0506 47.0112 97.7193 47.1925 98.6713 47.1925H100.949V49.8105H98.1613C96.4386 49.8105 95.1466 49.4139 94.2853 48.6205C93.424 47.8272 92.9933 46.5239 92.9933 44.7105V33.7285H90.5793V31.1785H92.9933V26.4865H96.0873V31.1785H100.949V33.7285H96.0873ZM103.542 40.4265C103.542 38.5225 103.927 36.8565 104.698 35.4285C105.469 33.9779 106.523 32.8559 107.86 32.0625C109.22 31.2692 110.727 30.8725 112.382 30.8725C114.014 30.8725 115.431 31.2239 116.632 31.9265C117.833 32.6292 118.729 33.5132 119.318 34.5785V31.1785H122.446V49.8105H119.318V46.3425C118.706 47.4305 117.788 48.3372 116.564 49.0625C115.363 49.7652 113.957 50.1165 112.348 50.1165C110.693 50.1165 109.197 49.7085 107.86 48.8925C106.523 48.0765 105.469 46.9319 104.698 45.4585C103.927 43.9852 103.542 42.3079 103.542 40.4265ZM119.318 40.4605C119.318 39.0552 119.035 37.8312 118.468 36.7885C117.901 35.7459 117.131 34.9525 116.156 34.4085C115.204 33.8419 114.15 33.5585 112.994 33.5585C111.838 33.5585 110.784 33.8305 109.832 34.3745C108.88 34.9185 108.121 35.7119 107.554 36.7545C106.987 37.7972 106.704 39.0212 106.704 40.4265C106.704 41.8545 106.987 43.1012 107.554 44.1665C108.121 45.2092 108.88 46.0139 109.832 46.5805C110.784 47.1245 111.838 47.3965 112.994 47.3965C114.15 47.3965 115.204 47.1245 116.156 46.5805C117.131 46.0139 117.901 45.2092 118.468 44.1665C119.035 43.1012 119.318 41.8659 119.318 40.4605ZM129.273 28.1525C128.683 28.1525 128.185 27.9485 127.777 27.5405C127.369 27.1325 127.165 26.6339 127.165 26.0445C127.165 25.4552 127.369 24.9565 127.777 24.5485C128.185 24.1405 128.683 23.9365 129.273 23.9365C129.839 23.9365 130.315 24.1405 130.701 24.5485C131.109 24.9565 131.313 25.4552 131.313 26.0445C131.313 26.6339 131.109 27.1325 130.701 27.5405C130.315 27.9485 129.839 28.1525 129.273 28.1525ZM130.769 31.1785V49.8105H127.675V31.1785H130.769ZM145.12 30.8385C147.386 30.8385 149.222 31.5299 150.628 32.9125C152.033 34.2725 152.736 36.2445 152.736 38.8285V49.8105H149.676V39.2705C149.676 37.4119 149.211 35.9952 148.282 35.0205C147.352 34.0232 146.083 33.5245 144.474 33.5245C142.842 33.5245 141.538 34.0345 140.564 35.0545C139.612 36.0745 139.136 37.5592 139.136 39.5085V49.8105H136.042V31.1785H139.136V33.8305C139.748 32.8785 140.575 32.1419 141.618 31.6205C142.683 31.0992 143.85 30.8385 145.12 30.8385ZM164.386 50.1165C162.958 50.1165 161.677 49.8785 160.544 49.4025C159.411 48.9039 158.515 48.2239 157.858 47.3625C157.201 46.4785 156.838 45.4699 156.77 44.3365H159.966C160.057 45.2659 160.487 46.0252 161.258 46.6145C162.051 47.2039 163.083 47.4985 164.352 47.4985C165.531 47.4985 166.46 47.2379 167.14 46.7165C167.82 46.1952 168.16 45.5379 168.16 44.7445C168.16 43.9285 167.797 43.3279 167.072 42.9425C166.347 42.5345 165.225 42.1379 163.706 41.7525C162.323 41.3899 161.19 41.0272 160.306 40.6645C159.445 40.2792 158.697 39.7239 158.062 38.9985C157.45 38.2505 157.144 37.2759 157.144 36.0745C157.144 35.1225 157.427 34.2499 157.994 33.4565C158.561 32.6632 159.365 32.0399 160.408 31.5865C161.451 31.1105 162.641 30.8725 163.978 30.8725C166.041 30.8725 167.707 31.3939 168.976 32.4365C170.245 33.4792 170.925 34.9072 171.016 36.7205H167.922C167.854 35.7459 167.457 34.9639 166.732 34.3745C166.029 33.7852 165.077 33.4905 163.876 33.4905C162.765 33.4905 161.881 33.7285 161.224 34.2045C160.567 34.6805 160.238 35.3039 160.238 36.0745C160.238 36.6865 160.431 37.1965 160.816 37.6045C161.224 37.9899 161.723 38.3072 162.312 38.5565C162.924 38.7832 163.763 39.0439 164.828 39.3385C166.165 39.7012 167.253 40.0639 168.092 40.4265C168.931 40.7665 169.645 41.2879 170.234 41.9905C170.846 42.6932 171.163 43.6112 171.186 44.7445C171.186 45.7645 170.903 46.6825 170.336 47.4985C169.769 48.3145 168.965 48.9605 167.922 49.4365C166.902 49.8899 165.723 50.1165 164.386 50.1165Z"/>
</mask>
<path d="M30.462 37.9445C30.462 35.6325 30.9833 33.5585 32.026 31.7225C33.0687 29.8639 34.4853 28.4132 36.276 27.3705C38.0893 26.3279 40.0953 25.8065 42.294 25.8065C44.878 25.8065 47.1333 26.4299 49.06 27.6765C50.9867 28.9232 52.392 30.6912 53.276 32.9805H49.57C48.9127 31.5525 47.9607 30.4532 46.714 29.6825C45.49 28.9119 44.0167 28.5265 42.294 28.5265C40.6393 28.5265 39.1547 28.9119 37.84 29.6825C36.5253 30.4532 35.494 31.5525 34.746 32.9805C33.998 34.3859 33.624 36.0405 33.624 37.9445C33.624 39.8259 33.998 41.4805 34.746 42.9085C35.494 44.3139 36.5253 45.4019 37.84 46.1725C39.1547 46.9432 40.6393 47.3285 42.294 47.3285C44.0167 47.3285 45.49 46.9545 46.714 46.2065C47.9607 45.4359 48.9127 44.3365 49.57 42.9085H53.276C52.392 45.1752 50.9867 46.9319 49.06 48.1785C47.1333 49.4025 44.878 50.0145 42.294 50.0145C40.0953 50.0145 38.0893 49.5045 36.276 48.4845C34.4853 47.4419 33.0687 46.0025 32.026 44.1665C30.9833 42.3305 30.462 40.2565 30.462 37.9445ZM74.4057 31.1785V49.8105H71.3117V47.0565C70.7223 48.0085 69.895 48.7565 68.8297 49.3005C67.787 49.8219 66.631 50.0825 65.3617 50.0825C63.911 50.0825 62.6077 49.7879 61.4517 49.1985C60.2957 48.5865 59.3777 47.6799 58.6977 46.4785C58.0403 45.2772 57.7117 43.8152 57.7117 42.0925V31.1785H60.7717V41.6845C60.7717 43.5205 61.2363 44.9372 62.1657 45.9345C63.095 46.9092 64.3643 47.3965 65.9737 47.3965C67.6283 47.3965 68.9317 46.8865 69.8837 45.8665C70.8357 44.8465 71.3117 43.3619 71.3117 41.4125V31.1785H74.4057ZM82.7237 34.2045C83.2677 33.1392 84.0384 32.3119 85.0357 31.7225C86.0557 31.1332 87.2911 30.8385 88.7417 30.8385V34.0345H87.9257C84.4577 34.0345 82.7237 35.9159 82.7237 39.6785V49.8105H79.6297V31.1785H82.7237V34.2045ZM96.0873 33.7285V44.7105C96.0873 45.6172 96.28 46.2632 96.6653 46.6485C97.0506 47.0112 97.7193 47.1925 98.6713 47.1925H100.949V49.8105H98.1613C96.4386 49.8105 95.1466 49.4139 94.2853 48.6205C93.424 47.8272 92.9933 46.5239 92.9933 44.7105V33.7285H90.5793V31.1785H92.9933V26.4865H96.0873V31.1785H100.949V33.7285H96.0873ZM103.542 40.4265C103.542 38.5225 103.927 36.8565 104.698 35.4285C105.469 33.9779 106.523 32.8559 107.86 32.0625C109.22 31.2692 110.727 30.8725 112.382 30.8725C114.014 30.8725 115.431 31.2239 116.632 31.9265C117.833 32.6292 118.729 33.5132 119.318 34.5785V31.1785H122.446V49.8105H119.318V46.3425C118.706 47.4305 117.788 48.3372 116.564 49.0625C115.363 49.7652 113.957 50.1165 112.348 50.1165C110.693 50.1165 109.197 49.7085 107.86 48.8925C106.523 48.0765 105.469 46.9319 104.698 45.4585C103.927 43.9852 103.542 42.3079 103.542 40.4265ZM119.318 40.4605C119.318 39.0552 119.035 37.8312 118.468 36.7885C117.901 35.7459 117.131 34.9525 116.156 34.4085C115.204 33.8419 114.15 33.5585 112.994 33.5585C111.838 33.5585 110.784 33.8305 109.832 34.3745C108.88 34.9185 108.121 35.7119 107.554 36.7545C106.987 37.7972 106.704 39.0212 106.704 40.4265C106.704 41.8545 106.987 43.1012 107.554 44.1665C108.121 45.2092 108.88 46.0139 109.832 46.5805C110.784 47.1245 111.838 47.3965 112.994 47.3965C114.15 47.3965 115.204 47.1245 116.156 46.5805C117.131 46.0139 117.901 45.2092 118.468 44.1665C119.035 43.1012 119.318 41.8659 119.318 40.4605ZM129.273 28.1525C128.683 28.1525 128.185 27.9485 127.777 27.5405C127.369 27.1325 127.165 26.6339 127.165 26.0445C127.165 25.4552 127.369 24.9565 127.777 24.5485C128.185 24.1405 128.683 23.9365 129.273 23.9365C129.839 23.9365 130.315 24.1405 130.701 24.5485C131.109 24.9565 131.313 25.4552 131.313 26.0445C131.313 26.6339 131.109 27.1325 130.701 27.5405C130.315 27.9485 129.839 28.1525 129.273 28.1525ZM130.769 31.1785V49.8105H127.675V31.1785H130.769ZM145.12 30.8385C147.386 30.8385 149.222 31.5299 150.628 32.9125C152.033 34.2725 152.736 36.2445 152.736 38.8285V49.8105H149.676V39.2705C149.676 37.4119 149.211 35.9952 148.282 35.0205C147.352 34.0232 146.083 33.5245 144.474 33.5245C142.842 33.5245 141.538 34.0345 140.564 35.0545C139.612 36.0745 139.136 37.5592 139.136 39.5085V49.8105H136.042V31.1785H139.136V33.8305C139.748 32.8785 140.575 32.1419 141.618 31.6205C142.683 31.0992 143.85 30.8385 145.12 30.8385ZM164.386 50.1165C162.958 50.1165 161.677 49.8785 160.544 49.4025C159.411 48.9039 158.515 48.2239 157.858 47.3625C157.201 46.4785 156.838 45.4699 156.77 44.3365H159.966C160.057 45.2659 160.487 46.0252 161.258 46.6145C162.051 47.2039 163.083 47.4985 164.352 47.4985C165.531 47.4985 166.46 47.2379 167.14 46.7165C167.82 46.1952 168.16 45.5379 168.16 44.7445C168.16 43.9285 167.797 43.3279 167.072 42.9425C166.347 42.5345 165.225 42.1379 163.706 41.7525C162.323 41.3899 161.19 41.0272 160.306 40.6645C159.445 40.2792 158.697 39.7239 158.062 38.9985C157.45 38.2505 157.144 37.2759 157.144 36.0745C157.144 35.1225 157.427 34.2499 157.994 33.4565C158.561 32.6632 159.365 32.0399 160.408 31.5865C161.451 31.1105 162.641 30.8725 163.978 30.8725C166.041 30.8725 167.707 31.3939 168.976 32.4365C170.245 33.4792 170.925 34.9072 171.016 36.7205H167.922C167.854 35.7459 167.457 34.9639 166.732 34.3745C166.029 33.7852 165.077 33.4905 163.876 33.4905C162.765 33.4905 161.881 33.7285 161.224 34.2045C160.567 34.6805 160.238 35.3039 160.238 36.0745C160.238 36.6865 160.431 37.1965 160.816 37.6045C161.224 37.9899 161.723 38.3072 162.312 38.5565C162.924 38.7832 163.763 39.0439 164.828 39.3385C166.165 39.7012 167.253 40.0639 168.092 40.4265C168.931 40.7665 169.645 41.2879 170.234 41.9905C170.846 42.6932 171.163 43.6112 171.186 44.7445C171.186 45.7645 170.903 46.6825 170.336 47.4985C169.769 48.3145 168.965 48.9605 167.922 49.4365C166.902 49.8899 165.723 50.1165 164.386 50.1165Z" fill="white"/>
<path d="M32.026 31.7225L32.8956 32.2164L32.8981 32.2118L32.026 31.7225ZM36.276 27.3705L35.7775 26.5036L35.7728 26.5064L36.276 27.3705ZM49.06 27.6765L49.6033 26.837V26.837L49.06 27.6765ZM53.276 32.9805V33.9805H54.7341L54.2089 32.6203L53.276 32.9805ZM49.57 32.9805L48.6616 33.3987L48.9295 33.9805H49.57V32.9805ZM46.714 29.6825L46.1812 30.5288L46.1882 30.5331L46.714 29.6825ZM37.84 29.6825L38.3457 30.5452V30.5452L37.84 29.6825ZM34.746 32.9805L35.6288 33.4504L35.6318 33.4446L34.746 32.9805ZM34.746 42.9085L33.8601 43.3726L33.8633 43.3784L34.746 42.9085ZM37.84 46.1725L38.3457 45.3098L37.84 46.1725ZM46.714 46.2065L47.2355 47.0598L47.2398 47.0571L46.714 46.2065ZM49.57 42.9085V41.9085H48.9295L48.6616 42.4904L49.57 42.9085ZM53.276 42.9085L54.2077 43.2719L54.7394 41.9085H53.276V42.9085ZM49.06 48.1785L49.5963 49.0226L49.6033 49.0181L49.06 48.1785ZM36.276 48.4845L35.7728 49.3487L35.7792 49.3525L35.7857 49.3561L36.276 48.4845ZM32.026 44.1665L32.8956 43.6727L32.026 44.1665ZM31.462 37.9445C31.462 35.7888 31.9464 33.8878 32.8956 32.2164L31.1564 31.2287C30.0203 33.2293 29.462 35.4763 29.462 37.9445H31.462ZM32.8981 32.2118C33.8561 30.5041 35.1473 29.1849 36.7792 28.2347L35.7728 26.5064C33.8234 27.6415 32.2812 29.2236 31.1539 31.2333L32.8981 32.2118ZM36.7745 28.2375C38.4283 27.2865 40.261 26.8065 42.294 26.8065V24.8065C39.9297 24.8065 37.7504 25.3693 35.7775 26.5036L36.7745 28.2375ZM42.294 26.8065C44.7103 26.8065 46.7717 27.387 48.5168 28.5161L49.6033 26.837C47.4949 25.4728 45.0457 24.8065 42.294 24.8065V26.8065ZM48.5168 28.5161C50.2536 29.64 51.5296 31.2338 52.3431 33.3408L54.2089 32.6203C53.2544 30.1486 51.7197 28.2065 49.6033 26.837L48.5168 28.5161ZM53.276 31.9805H49.57V33.9805H53.276V31.9805ZM50.4784 32.5624C49.7451 30.9694 48.666 29.7136 47.2398 28.832L46.1882 30.5331C47.2553 31.1928 48.0803 32.1357 48.6616 33.3987L50.4784 32.5624ZM47.2468 28.8363C45.835 27.9474 44.1688 27.5265 42.294 27.5265V29.5265C43.8645 29.5265 45.145 29.8764 46.1812 30.5288L47.2468 28.8363ZM42.294 27.5265C40.4773 27.5265 38.8154 27.9516 37.3343 28.8198L38.3457 30.5452C39.494 29.8721 40.8014 29.5265 42.294 29.5265V27.5265ZM37.3343 28.8198C35.8486 29.6908 34.6898 30.9327 33.8602 32.5165L35.6318 33.4446C36.2982 32.1724 37.2021 31.2157 38.3457 30.5452L37.3343 28.8198ZM33.8633 32.5107C33.0245 34.0865 32.624 35.9087 32.624 37.9445H34.624C34.624 36.1724 34.9715 34.6853 35.6287 33.4504L33.8633 32.5107ZM32.624 37.9445C32.624 39.9605 33.0256 41.7792 33.8602 43.3726L35.6318 42.4445C34.9704 41.1819 34.624 39.6913 34.624 37.9445H32.624ZM33.8633 43.3784C34.6941 44.9394 35.8527 46.1667 37.3343 47.0352L38.3457 45.3098C37.198 44.637 36.2939 43.6884 35.6287 42.4387L33.8633 43.3784ZM37.3343 47.0352C38.8154 47.9035 40.4773 48.3285 42.294 48.3285V46.3285C40.8014 46.3285 39.494 45.983 38.3457 45.3098L37.3343 47.0352ZM42.294 48.3285C44.1635 48.3285 45.8255 47.9215 47.2355 47.0598L46.1926 45.3533C45.1545 45.9876 43.8699 46.3285 42.294 46.3285V48.3285ZM47.2398 47.0571C48.666 46.1755 49.7451 44.9197 50.4784 43.3267L48.6616 42.4904C48.0803 43.7534 47.2553 44.6963 46.1882 45.356L47.2398 47.0571ZM49.57 43.9085H53.276V41.9085H49.57V43.9085ZM52.3443 42.5452C51.5317 44.6288 50.2562 46.2134 48.5168 47.339L49.6033 49.0181C51.7171 47.6503 53.2523 45.7216 54.2077 43.2719L52.3443 42.5452ZM48.5238 47.3345C46.7779 48.4436 44.7139 49.0145 42.294 49.0145V51.0145C45.0421 51.0145 47.4888 50.3615 49.5962 49.0226L48.5238 47.3345ZM42.294 49.0145C40.257 49.0145 38.4213 48.544 36.7663 47.613L35.7857 49.3561C37.7573 50.4651 39.9337 51.0145 42.294 51.0145V49.0145ZM36.7792 47.6204C35.1442 46.6684 33.8527 45.3581 32.8956 43.6727L31.1564 44.6604C32.2846 46.647 33.8264 48.2154 35.7728 49.3487L36.7792 47.6204ZM32.8956 43.6727C31.9464 42.0013 31.462 40.1003 31.462 37.9445H29.462C29.462 40.4128 30.0203 42.6598 31.1564 44.6604L32.8956 43.6727ZM74.4057 31.1785H75.4057V30.1785H74.4057V31.1785ZM74.4057 49.8105V50.8105H75.4057V49.8105H74.4057ZM71.3117 49.8105H70.3117V50.8105H71.3117V49.8105ZM71.3117 47.0565H72.3117V43.5413L70.4614 46.5302L71.3117 47.0565ZM68.8297 49.3005L69.2769 50.195L69.2845 50.1912L68.8297 49.3005ZM61.4517 49.1985L60.9838 50.0823L60.9906 50.0859L60.9975 50.0895L61.4517 49.1985ZM58.6977 46.4785L57.8204 46.9586L57.8239 46.9649L57.8274 46.9711L58.6977 46.4785ZM57.7117 31.1785V30.1785H56.7117V31.1785H57.7117ZM60.7717 31.1785H61.7717V30.1785H60.7717V31.1785ZM62.1657 45.9345L61.434 46.6163L61.4419 46.6246L62.1657 45.9345ZM69.8837 45.8665L69.1526 45.1842L69.8837 45.8665ZM71.3117 31.1785V30.1785H70.3117V31.1785H71.3117ZM73.4057 31.1785V49.8105H75.4057V31.1785H73.4057ZM74.4057 48.8105H71.3117V50.8105H74.4057V48.8105ZM72.3117 49.8105V47.0565H70.3117V49.8105H72.3117ZM70.4614 46.5302C69.9748 47.3163 69.2892 47.9431 68.3749 48.4099L69.2845 50.1912C70.5008 49.57 71.4699 48.7008 72.1619 47.5829L70.4614 46.5302ZM68.3825 48.4061C67.4907 48.852 66.4898 49.0825 65.3617 49.0825V51.0825C66.7722 51.0825 68.0833 50.7918 69.2769 50.195L68.3825 48.4061ZM65.3617 49.0825C64.05 49.0825 62.9053 48.8172 61.9059 48.3076L60.9975 50.0895C62.31 50.7586 63.772 51.0825 65.3617 51.0825V49.0825ZM61.9196 48.3148C60.9418 47.7971 60.1594 47.0308 59.5679 45.9859L57.8274 46.9711C58.596 48.329 59.6495 49.376 60.9838 50.0823L61.9196 48.3148ZM59.5749 45.9985C59.0163 44.9776 58.7117 43.6899 58.7117 42.0925H56.7117C56.7117 43.9405 57.0644 45.5768 57.8204 46.9586L59.5749 45.9985ZM58.7117 42.0925V31.1785H56.7117V42.0925H58.7117ZM57.7117 32.1785H60.7717V30.1785H57.7117V32.1785ZM59.7717 31.1785V41.6845H61.7717V31.1785H59.7717ZM59.7717 41.6845C59.7717 43.6842 60.2797 45.3774 61.4341 46.6163L62.8973 45.2528C62.193 44.497 61.7717 43.3569 61.7717 41.6845H59.7717ZM61.4419 46.6246C62.5963 47.8353 64.1485 48.3965 65.9737 48.3965V46.3965C64.5802 46.3965 63.5937 45.9831 62.8894 45.2445L61.4419 46.6246ZM65.9737 48.3965C67.8495 48.3965 69.4385 47.8091 70.6147 46.5489L69.1526 45.1842C68.4248 45.964 67.4071 46.3965 65.9737 46.3965V48.3965ZM70.6147 46.5489C71.798 45.2811 72.3117 43.5141 72.3117 41.4125H70.3117C70.3117 43.2097 69.8733 44.412 69.1526 45.1842L70.6147 46.5489ZM72.3117 41.4125V31.1785H70.3117V41.4125H72.3117ZM71.3117 32.1785H74.4057V30.1785H71.3117V32.1785ZM82.7237 34.2045H81.7237L83.6143 34.6593L82.7237 34.2045ZM85.0357 31.7225L84.5354 30.8566L84.527 30.8616L85.0357 31.7225ZM88.7417 30.8385H89.7417V29.8385H88.7417V30.8385ZM88.7417 34.0345V35.0345H89.7417V34.0345H88.7417ZM82.7237 49.8105V50.8105H83.7237V49.8105H82.7237ZM79.6297 49.8105H78.6297V50.8105H79.6297V49.8105ZM79.6297 31.1785V30.1785H78.6297V31.1785H79.6297ZM82.7237 31.1785H83.7237V30.1785H82.7237V31.1785ZM83.6143 34.6593C84.0751 33.757 84.7159 33.0731 85.5444 32.5835L84.527 30.8616C83.3609 31.5507 82.4604 32.5214 81.8331 33.7498L83.6143 34.6593ZM85.536 32.5884C86.3724 32.1052 87.4263 31.8385 88.7417 31.8385V29.8385C87.1558 29.8385 85.739 30.1613 84.5354 30.8567L85.536 32.5884ZM87.7417 30.8385V34.0345H89.7417V30.8385H87.7417ZM88.7417 33.0345H87.9257V35.0345H88.7417V33.0345ZM87.9257 33.0345C86.0157 33.0345 84.4054 33.5564 83.2889 34.7678C82.1866 35.9638 81.7237 37.6624 81.7237 39.6785H83.7237C83.7237 37.932 84.1279 36.8086 84.7595 36.1233C85.377 35.4533 86.3678 35.0345 87.9257 35.0345V33.0345ZM81.7237 39.6785V49.8105H83.7237V39.6785H81.7237ZM82.7237 48.8105H79.6297V50.8105H82.7237V48.8105ZM80.6297 49.8105V31.1785H78.6297V49.8105H80.6297ZM79.6297 32.1785H82.7237V30.1785H79.6297V32.1785ZM81.7237 31.1785V34.2045H83.7237V31.1785H81.7237ZM96.0873 33.7285V32.7285H95.0873V33.7285H96.0873ZM96.6653 46.6485L95.9582 47.3557L95.9689 47.3664L95.9799 47.3767L96.6653 46.6485ZM100.949 47.1925H101.949V46.1925H100.949V47.1925ZM100.949 49.8105V50.8105H101.949V49.8105H100.949ZM94.2853 48.6205L93.6078 49.3561L94.2853 48.6205ZM92.9933 33.7285H93.9933V32.7285H92.9933V33.7285ZM90.5793 33.7285H89.5793V34.7285H90.5793V33.7285ZM90.5793 31.1785V30.1785H89.5793V31.1785H90.5793ZM92.9933 31.1785V32.1785H93.9933V31.1785H92.9933ZM92.9933 26.4865V25.4865H91.9933V26.4865H92.9933ZM96.0873 26.4865H97.0873V25.4865H96.0873V26.4865ZM96.0873 31.1785H95.0873V32.1785H96.0873V31.1785ZM100.949 31.1785H101.949V30.1785H100.949V31.1785ZM100.949 33.7285V34.7285H101.949V33.7285H100.949ZM95.0873 33.7285V44.7105H97.0873V33.7285H95.0873ZM95.0873 44.7105C95.0873 45.7158 95.2936 46.691 95.9582 47.3557L97.3724 45.9414C97.2664 45.8354 97.0873 45.5186 97.0873 44.7105H95.0873ZM95.9799 47.3767C96.6516 48.0089 97.6489 48.1925 98.6713 48.1925V46.1925C97.7897 46.1925 97.4497 46.0136 97.3507 45.9203L95.9799 47.3767ZM98.6713 48.1925H100.949V46.1925H98.6713V48.1925ZM99.9493 47.1925V49.8105H101.949V47.1925H99.9493ZM100.949 48.8105H98.1613V50.8105H100.949V48.8105ZM98.1613 48.8105C96.5733 48.8105 95.5688 48.4432 94.9628 47.885L93.6078 49.3561C94.7245 50.3846 96.304 50.8105 98.1613 50.8105V48.8105ZM94.9628 47.885C94.3968 47.3637 93.9933 46.3959 93.9933 44.7105H91.9933C91.9933 46.6519 92.4511 48.2907 93.6078 49.3561L94.9628 47.885ZM93.9933 44.7105V33.7285H91.9933V44.7105H93.9933ZM92.9933 32.7285H90.5793V34.7285H92.9933V32.7285ZM91.5793 33.7285V31.1785H89.5793V33.7285H91.5793ZM90.5793 32.1785H92.9933V30.1785H90.5793V32.1785ZM93.9933 31.1785V26.4865H91.9933V31.1785H93.9933ZM92.9933 27.4865H96.0873V25.4865H92.9933V27.4865ZM95.0873 26.4865V31.1785H97.0873V26.4865H95.0873ZM96.0873 32.1785H100.949V30.1785H96.0873V32.1785ZM99.9493 31.1785V33.7285H101.949V31.1785H99.9493ZM100.949 32.7285H96.0873V34.7285H100.949V32.7285ZM104.698 35.4285L105.578 35.9035L105.581 35.8977L104.698 35.4285ZM107.86 32.0625L107.356 31.1987L107.35 31.2025L107.86 32.0625ZM116.632 31.9265L116.127 32.7897V32.7897L116.632 31.9265ZM119.318 34.5785L118.443 35.0626L120.318 34.5785H119.318ZM119.318 31.1785V30.1785H118.318V31.1785H119.318ZM122.446 31.1785H123.446V30.1785H122.446V31.1785ZM122.446 49.8105V50.8105H123.446V49.8105H122.446ZM119.318 49.8105H118.318V50.8105H119.318V49.8105ZM119.318 46.3425H120.318V42.525L118.447 45.8523L119.318 46.3425ZM116.564 49.0625L117.069 49.9257L117.074 49.9228L116.564 49.0625ZM107.86 48.8925L107.339 49.7462L107.86 48.8925ZM104.698 45.4585L105.584 44.995L104.698 45.4585ZM116.156 34.4085L115.645 35.2678L115.657 35.275L115.669 35.2817L116.156 34.4085ZM109.832 34.3745L109.336 33.5063L109.832 34.3745ZM107.554 36.7545L108.433 37.2321V37.2321L107.554 36.7545ZM107.554 44.1665L106.671 44.6362L106.675 44.6441L107.554 44.1665ZM109.832 46.5805L109.321 47.4398L109.328 47.4444L109.336 47.4488L109.832 46.5805ZM116.156 46.5805L116.652 47.4488L116.659 47.4451L116.156 46.5805ZM118.468 44.1665L119.347 44.6441L119.351 44.6362L118.468 44.1665ZM104.542 40.4265C104.542 38.6595 104.899 37.1622 105.578 35.9035L103.818 34.9536C102.956 36.5509 102.542 38.3855 102.542 40.4265H104.542ZM105.581 35.8977C106.271 34.5995 107.2 33.617 108.37 32.9226L107.35 31.2025C105.846 32.0948 104.667 33.3562 103.815 34.9594L105.581 35.8977ZM108.364 32.9263C109.563 32.2268 110.895 31.8725 112.382 31.8725V29.8725C110.56 29.8725 108.877 30.3116 107.356 31.1988L108.364 32.9263ZM112.382 31.8725C113.868 31.8725 115.104 32.1911 116.127 32.7897L117.137 31.0634C115.758 30.2567 114.161 29.8725 112.382 29.8725V31.8725ZM116.127 32.7897C117.196 33.4148 117.953 34.1761 118.443 35.0626L120.193 34.0945C119.505 32.8503 118.471 31.8436 117.137 31.0634L116.127 32.7897ZM120.318 34.5785V31.1785H118.318V34.5785H120.318ZM119.318 32.1785H122.446V30.1785H119.318V32.1785ZM121.446 31.1785V49.8105H123.446V31.1785H121.446ZM122.446 48.8105H119.318V50.8105H122.446V48.8105ZM120.318 49.8105V46.3425H118.318V49.8105H120.318ZM118.447 45.8523C117.932 46.767 117.149 47.5537 116.054 48.2023L117.074 49.9228C118.427 49.1208 119.48 48.0941 120.19 46.8328L118.447 45.8523ZM116.059 48.1994C115.034 48.7992 113.808 49.1165 112.348 49.1165V51.1165C114.107 51.1165 115.692 50.7312 117.069 49.9257L116.059 48.1994ZM112.348 49.1165C110.866 49.1165 109.552 48.7537 108.381 48.0389L107.339 49.7462C108.842 50.6634 110.52 51.1165 112.348 51.1165V49.1165ZM108.381 48.0389C107.208 47.3233 106.276 46.3179 105.584 44.995L103.812 45.922C104.661 47.5459 105.837 48.8298 107.339 49.7462L108.381 48.0389ZM105.584 44.995C104.898 43.6826 104.542 42.1679 104.542 40.4265H102.542C102.542 42.4479 102.957 44.2878 103.812 45.922L105.584 44.995ZM120.318 40.4605C120.318 38.9191 120.007 37.5251 119.347 36.311L117.589 37.2661C118.063 38.1374 118.318 39.1913 118.318 40.4605H120.318ZM119.347 36.311C118.696 35.1131 117.794 34.1775 116.643 33.5353L115.669 35.2817C116.468 35.7276 117.107 36.3787 117.589 37.2661L119.347 36.311ZM116.668 33.5493C115.554 32.8864 114.322 32.5585 112.994 32.5585V34.5585C113.978 34.5585 114.854 34.7974 115.645 35.2678L116.668 33.5493ZM112.994 32.5585C111.674 32.5585 110.447 32.8712 109.336 33.5063L110.328 35.2428C111.121 34.7899 112.002 34.5585 112.994 34.5585V32.5585ZM109.336 33.5063C108.209 34.1501 107.323 35.0851 106.675 36.277L108.433 37.2321C108.918 36.3387 109.551 35.687 110.328 35.2428L109.336 33.5063ZM106.675 36.277C106.016 37.4911 105.704 38.8851 105.704 40.4265H107.704C107.704 39.1573 107.959 38.1034 108.433 37.2321L106.675 36.277ZM105.704 40.4265C105.704 41.9883 106.015 43.4019 106.671 44.6362L108.437 43.6969C107.96 42.8005 107.704 41.7208 107.704 40.4265H105.704ZM106.675 44.6441C107.322 45.833 108.203 46.7747 109.321 47.4398L110.344 45.7213C109.557 45.2531 108.92 44.5854 108.433 43.689L106.675 44.6441ZM109.336 47.4488C110.447 48.0839 111.674 48.3965 112.994 48.3965V46.3965C112.002 46.3965 111.121 46.1652 110.328 45.7123L109.336 47.4488ZM112.994 48.3965C114.314 48.3965 115.541 48.0839 116.652 47.4488L115.66 45.7123C114.867 46.1652 113.986 46.3965 112.994 46.3965V48.3965ZM116.659 47.4451C117.8 46.7813 118.697 45.8389 119.347 44.6441L117.589 43.689C117.105 44.5795 116.461 45.2464 115.653 45.716L116.659 47.4451ZM119.351 44.6362C120.006 43.4041 120.318 42.0026 120.318 40.4605H118.318C118.318 41.7292 118.063 42.7983 117.585 43.6969L119.351 44.6362ZM127.777 27.5405L128.484 26.8334V26.8334L127.777 27.5405ZM127.777 24.5485L128.484 25.2557V25.2557L127.777 24.5485ZM130.701 24.5485L129.974 25.2352L129.983 25.2456L129.994 25.2557L130.701 24.5485ZM130.701 27.5405L129.994 26.8334L129.983 26.8435L129.974 26.8539L130.701 27.5405ZM130.769 31.1785H131.769V30.1785H130.769V31.1785ZM130.769 49.8105V50.8105H131.769V49.8105H130.769ZM127.675 49.8105H126.675V50.8105H127.675V49.8105ZM127.675 31.1785V30.1785H126.675V31.1785H127.675ZM129.273 27.1525C128.942 27.1525 128.7 27.0495 128.484 26.8334L127.07 28.2477C127.67 28.8476 128.424 29.1525 129.273 29.1525V27.1525ZM128.484 26.8334C128.268 26.6174 128.165 26.375 128.165 26.0445H126.165C126.165 26.8927 126.47 27.6477 127.07 28.2477L128.484 26.8334ZM128.165 26.0445C128.165 25.7141 128.268 25.4717 128.484 25.2557L127.07 23.8414C126.47 24.4414 126.165 25.1964 126.165 26.0445H128.165ZM128.484 25.2557C128.7 25.0396 128.942 24.9365 129.273 24.9365V22.9365C128.424 22.9365 127.67 23.2415 127.07 23.8414L128.484 25.2557ZM129.273 24.9365C129.567 24.9365 129.779 25.0294 129.974 25.2352L131.428 23.8619C130.851 23.2517 130.111 22.9365 129.273 22.9365V24.9365ZM129.994 25.2557C130.21 25.4717 130.313 25.7141 130.313 26.0445H132.313C132.313 25.1964 132.008 24.4414 131.408 23.8414L129.994 25.2557ZM130.313 26.0445C130.313 26.375 130.21 26.6174 129.994 26.8334L131.408 28.2477C132.008 27.6477 132.313 26.8927 132.313 26.0445H130.313ZM129.974 26.8539C129.779 27.0597 129.567 27.1525 129.273 27.1525V29.1525C130.111 29.1525 130.851 28.8374 131.428 28.2272L129.974 26.8539ZM129.769 31.1785V49.8105H131.769V31.1785H129.769ZM130.769 48.8105H127.675V50.8105H130.769V48.8105ZM128.675 49.8105V31.1785H126.675V49.8105H128.675ZM127.675 32.1785H130.769V30.1785H127.675V32.1785ZM150.628 32.9125L149.926 33.6254L149.932 33.6311L150.628 32.9125ZM152.736 49.8105V50.8105H153.736V49.8105H152.736ZM149.676 49.8105H148.676V50.8105H149.676V49.8105ZM148.282 35.0205L147.55 35.7023L147.558 35.7106L148.282 35.0205ZM140.564 35.0545L139.841 34.3636L139.833 34.3722L140.564 35.0545ZM139.136 49.8105V50.8105H140.136V49.8105H139.136ZM136.042 49.8105H135.042V50.8105H136.042V49.8105ZM136.042 31.1785V30.1785H135.042V31.1785H136.042ZM139.136 31.1785H140.136V30.1785H139.136V31.1785ZM139.136 33.8305H138.136V37.2354L139.977 34.3713L139.136 33.8305ZM141.618 31.6205L141.178 30.7223L141.171 30.7261L141.618 31.6205ZM145.12 31.8385C147.167 31.8385 148.736 32.4545 149.926 33.6254L151.329 32.1997C149.709 30.6052 147.606 29.8385 145.12 29.8385V31.8385ZM149.932 33.6311C151.086 34.7479 151.736 36.4248 151.736 38.8285H153.736C153.736 36.0643 152.98 33.7972 151.323 32.1939L149.932 33.6311ZM151.736 38.8285V49.8105H153.736V38.8285H151.736ZM152.736 48.8105H149.676V50.8105H152.736V48.8105ZM150.676 49.8105V39.2705H148.676V49.8105H150.676ZM150.676 39.2705C150.676 37.2539 150.17 35.5522 149.006 34.3305L147.558 35.7106C148.252 36.4383 148.676 37.5699 148.676 39.2705H150.676ZM149.013 34.3388C147.861 33.1018 146.306 32.5245 144.474 32.5245V34.5245C145.86 34.5245 146.844 34.9446 147.55 35.7023L149.013 34.3388ZM144.474 32.5245C142.615 32.5245 141.034 33.1149 139.841 34.3637L141.287 35.7454C142.043 34.9542 143.068 34.5245 144.474 34.5245V32.5245ZM139.833 34.3722C138.649 35.64 138.136 37.407 138.136 39.5085H140.136C140.136 37.7114 140.574 36.5091 141.295 35.7369L139.833 34.3722ZM138.136 39.5085V49.8105H140.136V39.5085H138.136ZM139.136 48.8105H136.042V50.8105H139.136V48.8105ZM137.042 49.8105V31.1785H135.042V49.8105H137.042ZM136.042 32.1785H139.136V30.1785H136.042V32.1785ZM138.136 31.1785V33.8305H140.136V31.1785H138.136ZM139.977 34.3713C140.489 33.5751 141.178 32.9585 142.065 32.515L141.171 30.7261C139.972 31.3253 139.007 32.182 138.295 33.2898L139.977 34.3713ZM142.057 32.5188C142.976 32.069 143.992 31.8385 145.12 31.8385V29.8385C143.709 29.8385 142.39 30.1294 141.178 30.7223L142.057 32.5188ZM160.544 49.4025L160.141 50.3179L160.149 50.3213L160.157 50.3245L160.544 49.4025ZM157.858 47.3625L157.055 47.9593L157.063 47.9692L157.858 47.3625ZM156.77 44.3365V43.3365H155.708L155.772 44.3964L156.77 44.3365ZM159.966 44.3365L160.961 44.2394L160.873 43.3365H159.966V44.3365ZM161.258 46.6145L160.65 47.409L160.662 47.4173L161.258 46.6145ZM167.072 42.9425L166.582 43.8141L166.592 43.82L166.603 43.8257L167.072 42.9425ZM163.706 41.7525L163.452 42.7199L163.46 42.7218L163.706 41.7525ZM160.306 40.6645L159.898 41.5774L159.912 41.5838L159.926 41.5897L160.306 40.6645ZM158.062 38.9985L157.288 39.6318L157.298 39.6446L157.309 39.6571L158.062 38.9985ZM157.994 33.4565L157.18 32.8753L157.994 33.4565ZM160.408 31.5865L160.807 32.5036L160.815 32.5L160.823 32.4962L160.408 31.5865ZM168.976 32.4365L168.341 33.2093L168.976 32.4365ZM171.016 36.7205V37.7205H172.067L172.015 36.6706L171.016 36.7205ZM167.922 36.7205L166.924 36.7901L166.989 37.7205H167.922V36.7205ZM166.732 34.3745L166.089 35.1407L166.095 35.1457L166.101 35.1507L166.732 34.3745ZM161.224 34.2045L160.637 33.3946V33.3946L161.224 34.2045ZM160.816 37.6045L160.089 38.2912L160.108 38.3119L160.129 38.3316L160.816 37.6045ZM162.312 38.5565L161.922 39.4775L161.943 39.4864L161.965 39.4943L162.312 38.5565ZM164.828 39.3385L164.561 40.3024L164.566 40.3037L164.828 39.3385ZM168.092 40.4265L167.695 41.3444L167.706 41.349L167.716 41.3533L168.092 40.4265ZM170.234 41.9905L169.468 42.6332L169.474 42.6403L169.48 42.6473L170.234 41.9905ZM171.186 44.7445H172.186V44.7345L172.186 44.7246L171.186 44.7445ZM170.336 47.4985L169.515 46.9282V46.9282L170.336 47.4985ZM167.922 49.4365L168.328 50.3504L168.337 50.3462L167.922 49.4365ZM164.386 49.1165C163.07 49.1165 161.924 48.8974 160.931 48.4806L160.157 50.3245C161.431 50.8597 162.846 51.1165 164.386 51.1165V49.1165ZM160.947 48.4872C159.946 48.0468 159.194 47.4647 158.653 46.7559L157.063 47.9692C157.837 48.9831 158.875 49.761 160.141 50.3179L160.947 48.4872ZM158.66 46.7658C158.123 46.0429 157.825 45.2221 157.768 44.2767L155.772 44.3964C155.851 45.7176 156.278 46.9142 157.055 47.9592L158.66 46.7658ZM156.77 45.3365H159.966V43.3365H156.77V45.3365ZM158.971 44.4336C159.089 45.6511 159.669 46.6584 160.65 47.4089L161.865 45.8202C161.305 45.392 161.024 44.8807 160.961 44.2394L158.971 44.4336ZM160.662 47.4173C161.671 48.167 162.929 48.4985 164.352 48.4985V46.4985C163.236 46.4985 162.432 46.2407 161.854 45.8118L160.662 47.4173ZM164.352 48.4985C165.669 48.4985 166.839 48.2076 167.748 47.5102L166.531 45.9229C166.081 46.2682 165.392 46.4985 164.352 46.4985V48.4985ZM167.748 47.5102C168.652 46.8171 169.16 45.8766 169.16 44.7445H167.16C167.16 45.1992 166.987 45.5733 166.531 45.9229L167.748 47.5102ZM169.16 44.7445C169.16 44.1845 169.034 43.6454 168.744 43.1652C168.454 42.6853 168.036 42.3223 167.541 42.0594L166.603 43.8257C166.833 43.9481 166.959 44.0781 167.032 44.1989C167.105 44.3194 167.16 44.4886 167.16 44.7445H169.16ZM167.562 42.071C166.72 41.5971 165.495 41.1748 163.952 40.7833L163.46 42.7218C164.954 43.101 165.973 43.472 166.582 43.8141L167.562 42.071ZM163.96 40.7853C162.601 40.4289 161.514 40.0792 160.685 39.7394L159.926 41.5897C160.866 41.9752 162.045 42.3508 163.452 42.7198L163.96 40.7853ZM160.714 39.7517C159.988 39.4266 159.356 38.9592 158.814 38.34L157.309 39.6571C158.037 40.4886 158.902 41.1318 159.898 41.5774L160.714 39.7517ZM158.836 38.3653C158.403 37.836 158.144 37.1027 158.144 36.0745H156.144C156.144 37.449 156.497 38.6651 157.288 39.6318L158.836 38.3653ZM158.144 36.0745C158.144 35.3363 158.359 34.6659 158.808 34.0378L157.18 32.8753C156.495 33.8339 156.144 34.9088 156.144 36.0745H158.144ZM158.808 34.0378C159.253 33.4149 159.902 32.8969 160.807 32.5036L160.009 30.6695C158.828 31.1829 157.869 31.9115 157.18 32.8753L158.808 34.0378ZM160.823 32.4962C161.715 32.0889 162.76 31.8725 163.978 31.8725V29.8725C162.521 29.8725 161.186 30.1322 159.993 30.6769L160.823 32.4962ZM163.978 31.8725C165.87 31.8725 167.293 32.3479 168.341 33.2093L169.611 31.6638C168.121 30.4398 166.211 29.8725 163.978 29.8725V31.8725ZM168.341 33.2093C169.368 34.0531 169.939 35.2056 170.017 36.7705L172.015 36.6706C171.912 34.6088 171.122 32.9053 169.611 31.6638L168.341 33.2093ZM171.016 35.7205H167.922V37.7205H171.016V35.7205ZM168.919 36.6509C168.833 35.4143 168.313 34.3711 167.362 33.5984L166.101 35.1507C166.601 35.5567 166.875 36.0775 166.924 36.7901L168.919 36.6509ZM167.374 33.6084C166.442 32.8265 165.238 32.4905 163.876 32.4905V34.4905C164.916 34.4905 165.616 34.7439 166.089 35.1407L167.374 33.6084ZM163.876 32.4905C162.631 32.4905 161.518 32.7569 160.637 33.3946L161.81 35.0145C162.244 34.7002 162.9 34.4905 163.876 34.4905V32.4905ZM160.637 33.3946C159.737 34.0469 159.238 34.9637 159.238 36.0745H161.238C161.238 35.644 161.397 35.3142 161.81 35.0145L160.637 33.3946ZM159.238 36.0745C159.238 36.9166 159.512 37.68 160.089 38.2912L161.543 36.9179C161.349 36.7131 161.238 36.4564 161.238 36.0745H159.238ZM160.129 38.3316C160.635 38.8093 161.238 39.1882 161.922 39.4775L162.702 37.6356C162.207 37.4262 161.813 37.1704 161.503 36.8775L160.129 38.3316ZM161.965 39.4943C162.615 39.7352 163.485 40.0045 164.561 40.3024L165.094 38.3747C164.041 38.0832 163.233 37.8312 162.659 37.6188L161.965 39.4943ZM164.566 40.3037C165.878 40.6595 166.916 41.0077 167.695 41.3444L168.489 39.5087C167.59 39.12 166.452 38.7429 165.09 38.3734L164.566 40.3037ZM167.716 41.3533C168.401 41.631 168.982 42.0539 169.468 42.6332L171 41.3479C170.307 40.5218 169.46 39.902 168.468 39.4998L167.716 41.3533ZM169.48 42.6473C169.906 43.1371 170.167 43.813 170.186 44.7645L172.186 44.7246C172.159 43.4094 171.785 42.2494 170.988 41.3338L169.48 42.6473ZM170.186 44.7445C170.186 45.5665 169.962 46.2843 169.515 46.9282L171.157 48.0689C171.843 47.0808 172.186 45.9626 172.186 44.7445H170.186ZM169.515 46.9282C169.065 47.5752 168.411 48.1138 167.507 48.5269L168.337 50.3462C169.518 49.8073 170.473 49.0539 171.157 48.0689L169.515 46.9282ZM167.516 48.5227C166.646 48.9091 165.611 49.1165 164.386 49.1165V51.1165C165.836 51.1165 167.157 50.8706 168.328 50.3504L167.516 48.5227Z" fill="white" mask="url(#path-2-outside-1_2001_2)"/>
</svg>
